<?xml version="1.0" standalone="no"?>
<!DOCTYPE svg PUBLIC "-//W3C//DTD SVG 1.1//EN" "http://www.w3.org/Graphics/SVG/1.1/DTD/svg11.dtd" >
<!--
2019-5-18: Created with FontForge (http://fontforge.org)
-->
<svg xmlns="http://www.w3.org/2000/svg" xmlns:xlink="http://www.w3.org/1999/xlink" version="1.1">
<metadata>
Created by FontForge 20170924 at Sat May 18 09:47:35 2019
 By Thomas Adams,,,

</metadata>
<defs>
<font id="LineIcons" horiz-adv-x="512" >
  <font-face 
    font-family="LineIcons"
    font-weight="400"
    font-stretch="normal"
    units-per-em="512"
    panose-1="2 0 5 3 0 0 0 0 0 0"
    ascent="448"
    descent="-64"
    bbox="-4648.45 -2343.94 2673.66 448"
    underline-thickness="25.6"
    underline-position="-51.2"
    unicode-range="U+0020-F2CE"
  />
    <missing-glyph />
    <glyph glyph-name="space" unicode=" " horiz-adv-x="200" 
 />
    <glyph glyph-name="code" unicode="&#xf162;" 
d="M142.336 307.712c5.63184 -5.63184 5.63184 -14.3359 0 -19.9678l-95.7441 -95.7441l95.2324 -95.7441c5.63184 -5.63184 5.63184 -14.3359 0 -19.9678c-2.56055 -2.56055 -6.14453 -4.0957 -9.72852 -4.0957s-7.16797 1.53516 -9.72754 4.0957l-101.888 101.888
c-3.58398 4.09668 -5.63281 8.7041 -5.63281 13.8242s2.04883 9.72754 5.63281 13.8242l101.888 101.888c5.63184 5.63184 14.3359 5.63184 19.9678 0zM491.52 205.824c3.58398 -4.09668 5.63281 -8.7041 5.63281 -13.8242c0 -5.63184 -2.04883 -10.2402 -5.63281 -13.8242
l-102.399 -101.888c-2.56055 -2.56055 -6.14453 -4.0957 -9.72852 -4.0957s-7.16797 1.53516 -9.72754 4.0957c-5.63184 5.63184 -5.63184 14.3359 0 19.9678l95.7441 95.7441l-95.7441 95.7441c-5.63184 5.63184 -5.63184 14.3359 0 19.9678s14.3359 5.63184 19.9678 0z
M308.736 290.816c6.65527 -3.07227 9.72754 -11.7764 6.65527 -18.9443l-92.6719 -190.976c-2.55957 -4.6084 -7.67969 -7.68066 -12.7998 -7.68066c-2.04785 0 -4.0957 0.511719 -6.14355 1.53613c-7.16797 3.58398 -10.2402 11.7764 -6.65625 18.9443l92.6719 190.464
c3.58398 7.16797 11.7764 10.2402 18.9443 6.65625z" />
    <glyph glyph-name="ambulance" unicode="&#xf109;" 
d="M464.384 355.328c13.3125 0 24.5762 -11.2637 25.6006 -25.0879v-217.088c0 -13.8242 -11.2646 -25.0879 -25.0879 -25.0879h-19.4561v-2.04883c0 -31.7432 -25.6006 -57.3438 -57.3447 -57.3438s-57.3438 25.6006 -57.3438 57.3438v2.04883h-144.384v0h-16.8965
v-2.04883c0 -31.7432 -25.5996 -57.3438 -57.3438 -57.3438s-57.3438 25.6006 -57.3438 57.3438v2.04883h-6.65625c-13.8242 0 -25.0879 11.2637 -25.0879 25.0879v70.6553v16.8965l28.1602 66.5596l8.19141 18.9443c3.58398 8.7041 12.8008 14.8477 22.5283 14.8477
h20.9922v9.72852c0 5.63184 4.60742 10.2402 10.2402 10.2402h15.3594c5.63184 0 10.2402 -4.6084 10.2402 -10.2402v-9.72852h32.7676v29.1846c0 13.8242 11.2646 25.0879 25.0889 25.0879h267.775zM84.4805 272.896l-26.1123 -60.9287h113.664v60.9287h-87.5518z
M111.616 56.832c15.8721 0 29.1836 13.3115 29.1836 29.1836s-13.3115 29.1846 -29.1836 29.1846s-29.1846 -13.3125 -29.1846 -29.1846s13.3125 -29.1836 29.1846 -29.1836zM111.616 143.36c20.4795 0 38.3994 -10.752 48.6396 -27.1367v0h11.2637v67.584h-120.319v-67.584
h11.7754c10.2402 16.3848 28.1602 27.1367 48.6406 27.1367zM387.584 56.832c15.8721 0 29.1836 13.3115 29.1836 29.1836s-13.3115 29.1846 -29.1836 29.1846s-29.1836 -13.3125 -29.1836 -29.1846s13.3115 -29.1836 29.1836 -29.1836zM460.8 116.224v210.944h-261.12
v-26.1123v-117.248v-67.584h138.752c10.2402 16.3848 28.1602 27.1367 48.6406 27.1367c20.4795 0 38.3994 -10.752 48.6396 -27.1367h25.0879zM286.208 217.088c-7.67969 0 -14.3359 6.14453 -14.3359 14.3359c0 8.19238 6.65625 14.3359 14.3359 14.3359h36.8643v36.8643
c0 8.19238 6.14355 14.3359 14.3359 14.3359c8.19141 0 14.3359 -6.65625 14.3359 -14.3359v-36.8643h36.8643c8.19141 0 14.3359 -6.14355 14.3359 -14.3359c0 -8.19141 -6.65625 -14.3359 -14.3359 -14.3359h-36.8643v-36.8643
c0 -8.19141 -6.14453 -14.3359 -14.3359 -14.3359c-8.19238 0 -14.3359 6.65625 -14.3359 14.3359v36.8643h-36.8643z" />
    <glyph glyph-name="dollar" unicode="&#xf180;" 
d="M306.688 205.824c54.7832 0 99.3271 -44.0322 99.8398 -98.8164c0 -26.624 -10.752 -51.2002 -29.1846 -70.1436c-18.9434 -18.9443 -43.5195 -29.1846 -70.1436 -29.1846h-28.6719v-33.792c0 -8.19141 -6.14453 -14.3359 -13.8242 -14.3359
c-8.19238 0 -14.3359 6.65625 -14.3359 14.3359v33.792h-101.376c-8.19238 0 -14.3359 6.14453 -14.3359 14.3359c0 8.19238 6.65527 14.3359 14.3359 14.3359h157.696c18.9434 0 36.8633 7.16797 50.1758 20.4805c13.3115 13.3115 20.4795 31.2324 20.4795 50.1758
c0 38.9121 -31.7441 70.6562 -70.6553 70.6562h-101.889c-54.2715 0 -98.8154 44.0322 -98.8154 98.8164c0 26.623 10.752 51.1992 29.1836 70.1436c18.9443 18.9443 43.5205 29.1836 70.1436 29.1836h45.0566v33.792c0 8.19238 6.65625 14.3359 14.3359 14.3359
s13.8242 -6.65527 13.8242 -14.3359v-33.792h84.4795c8.19238 0 14.3359 -6.14355 14.3359 -14.3359c0 -8.19141 -6.65527 -14.3359 -14.3359 -14.3359h-157.696c-18.9434 0 -36.8633 -7.16797 -50.1758 -20.4795c-13.3115 -13.3125 -20.4795 -31.2324 -20.4795 -50.1758
c0 -38.9121 31.7441 -70.6562 70.6553 -70.6562h101.377z" />
    <glyph glyph-name="envato" unicode="&#xf18c;" 
d="M398.233 418.867c36.5566 -20.4287 94.3613 -242.688 32.0518 -354.304c-53.8115 -96.7168 -175.924 -131.481 -272.589 -77.6191c-96.7168 53.7598 -132.864 176.589 -77.5684 272.486c11.1104 19.3535 27.9043 37.2217 31.9492 41.2666
c1.99609 1.99707 13.209 -5.01758 9.7793 -10.7002c-18.3301 -63.9492 -9.62598 -108.288 12.3389 -150.426c1.58691 -0.972656 9.625 -4.50586 10.4961 -1.38281c4.8125 131.584 73.4717 213.504 154.828 269.159c46.4902 14.3867 85.1973 18.9951 98.7139 11.5195z" />
    <glyph glyph-name="instagram-filled" unicode="&#xf1cd;" 
d="M388.608 349.696c4.0957 0 9.21582 -1.53613 12.2881 -4.6084c2.55957 -3.07227 4.60742 -7.16797 4.60742 -11.2637c0 -4.6084 -1.02344 -9.72852 -4.60742 -12.2881c-6.14453 -6.14453 -17.9209 -6.14453 -24.0645 0c-3.07227 3.58398 -4.6084 7.16797 -4.6084 11.7754
c0 4.09668 1.02441 9.2168 4.6084 11.7764c3.58398 3.07227 7.16797 4.6084 11.7764 4.6084zM256.512 282.624c49.6641 0 90.624 -40.4482 90.624 -90.624c0 -49.6641 -40.96 -90.624 -90.624 -90.624c-50.6875 0 -90.624 40.96 -90.624 90.624
s39.9365 90.624 90.624 90.624zM355.328 435.2c79.8721 0 143.872 -64 143.872 -143.872v-198.656c0 -79.8721 -64 -143.872 -143.872 -143.872h-198.656c-79.8721 0 -143.872 64 -143.872 143.872v198.656c0 79.8721 64 143.872 143.872 143.872h198.656zM256.512 72.7041
c65.5361 0 118.272 54.2715 118.272 119.296s-53.248 119.296 -118.272 119.296c-66.0479 0 -119.296 -54.2715 -119.296 -119.296s53.248 -119.296 119.296 -119.296zM435.2 332.288v0c0 12.2881 -5.63184 23.5518 -13.8242 33.2803
c-8.7041 9.21582 -20.4795 13.8232 -32.7676 13.8232c-12.8008 0 -24.5762 -5.11914 -32.7686 -13.3115c-8.7041 -9.21582 -13.3115 -19.9678 -13.3115 -32.7686c0 -12.7998 5.12012 -24.5752 13.3115 -32.7676c9.21582 -8.7041 20.4805 -13.3115 32.7686 -13.3115
c12.7998 0 24.5752 5.11914 32.7676 13.3115s13.3125 19.4561 13.8242 31.7441z" />
    <glyph glyph-name="dumbbell" unicode="&#xf189;" 
d="M472.064 226.304c8.19141 -1.53613 13.8232 -8.7041 14.3359 -16.8955v-34.3047c0 -8.70312 -6.14453 -15.8711 -14.3359 -17.4072v-17.9199c0 -22.0166 -17.9209 -39.9365 -39.9365 -39.9365h-27.6475c-22.0166 0 -39.9365 17.9199 -39.9365 39.9365v17.4072h-19.4561
c-5.63184 0 -10.2402 4.6084 -10.2402 10.2402v8.7041h-157.695v-8.7041c0 -5.63184 -4.6084 -10.2402 -10.2402 -10.2402h-19.4561v-20.9912c0 -19.9688 -16.3838 -36.3525 -36.3525 -36.3525h-34.3037c-20.4795 0 -36.8643 16.3838 -36.3516 35.8398v21.5039
c-8.19238 1.53613 -14.3359 8.7041 -14.3359 17.4082v34.3047c0 8.70312 6.14355 15.8711 14.3359 17.4072v21.5039c0 19.9688 16.3838 36.3525 36.3516 36.3525h34.3037c19.9688 0 36.3525 -16.3838 36.3525 -36.3525v-20.9912h19.4561
c5.63184 0 10.2402 -4.6084 10.2402 -10.2402v-12.2881h157.695v12.2881c0 5.63184 4.6084 10.2402 10.2402 10.2402h19.4561v17.4072c0 22.0166 17.9199 39.9365 39.9365 39.9365h27.6475c22.0156 0 39.9365 -17.9199 39.9365 -39.9365v-17.9199zM119.296 136.192v111.615
c0 4.6084 -3.58398 8.19238 -8.19238 8.19238h-34.3037c-4.60742 0 -8.19141 -3.58398 -8.19141 -8.19238v-111.615c0 -4.6084 3.58398 -8.19238 8.19141 -8.19238h34.3037c4.6084 0 8.19238 3.58398 8.19238 8.19238zM443.904 139.776v104.447
c0 6.65625 -5.12012 11.7764 -11.7764 11.7764h-27.6475c-6.65625 0 -11.7764 -5.12012 -11.7764 -11.7764v-104.447c0 -6.65625 5.12012 -11.7764 11.7764 -11.7764h27.6475c6.65625 0 11.7764 5.12012 11.7764 11.7764z" />
    <glyph glyph-name="layers" unicode="&#xf1dc;" 
d="M478.208 98.3037c7.67969 -4.60742 11.7764 -12.2881 11.7764 -20.9922c-0.512695 -7.67969 -4.6084 -14.8477 -11.7764 -17.9199l-205.824 -113.151c-3.58398 -2.04785 -7.67969 -3.07227 -11.2637 -3.07227c-4.0957 0 -8.19238 1.53613 -11.2637 3.58398
l-215.553 113.152c-7.16797 4.0957 -11.2637 11.2637 -11.2637 19.4561c0 8.19141 4.6084 15.3594 11.2637 19.4561l61.9521 34.3037l-61.4395 32.2559c-7.68066 4.6084 -11.7764 11.7764 -11.7764 19.9678c0 8.19238 4.0957 15.3604 11.2637 19.4561l68.0967 37.8887
l-68.6084 35.8398c-7.16797 4.0957 -11.2637 11.2637 -11.2637 19.4561c0 8.19141 4.0957 15.3594 11.2637 19.4561l216.064 119.808c6.65527 4.6084 15.3594 4.6084 22.5273 0l205.824 -119.808c7.16797 -4.09668 11.7764 -11.7764 11.2637 -20.4805
c-0.511719 -7.67969 -4.60742 -14.8477 -11.7754 -17.9199l-66.5605 -36.3516l66.0479 -38.4004c7.16797 -4.0957 11.7764 -11.7764 11.2646 -20.4805c-0.512695 -7.67969 -4.6084 -14.8477 -11.7764 -17.9199l-58.8799 -32.7676zM260.608 411.136l-203.776 -113.151
l203.264 -106.496l194.561 107.008zM132.096 226.816l-74.752 -40.96l203.776 -107.521l193.536 107.521l-71.168 41.4717l-110.08 -60.416c-4.09668 -3.07227 -8.19238 -4.6084 -12.7998 -4.6084c-3.58398 0 -7.68066 1.02441 -10.752 3.07227zM261.12 -27.1357
l194.048 106.496l-66.0479 36.8633l-117.248 -65.0234c-3.58398 -2.04785 -7.67969 -3.07227 -11.2637 -3.07227c-4.09668 0 -8.19238 1.02441 -11.2646 3.58398l-123.903 65.5361l-68.0967 -37.8877z" />
    <glyph glyph-name="apartment" unicode="&#xf112;" 
d="M384.512 326.656c-2.04785 0 -4.0957 2.04785 -3.58398 3.58398v11.2637c0 2.56055 1.02441 3.58398 3.58398 3.58398h11.2646c2.55957 0 3.58398 -1.53613 3.58398 -3.58398v-11.2637c0 -2.56055 -1.02441 -3.58398 -3.58398 -3.58398h-11.2646zM384.512 137.728
c-2.04785 0 -4.0957 1.53613 -3.58398 3.58398v11.2646c0 2.55957 1.02441 3.58398 3.58398 3.58398h11.2646c2.55957 0 3.58398 -1.53613 3.58398 -3.58398v-11.2646c0 -2.55957 -1.02441 -3.58398 -3.58398 -3.58398h-11.2646zM384.512 43.5195
c-2.04785 0 -4.0957 1.53613 -3.58398 4.09668v11.2637c0 2.56055 1.02441 3.58398 3.58398 3.58398h11.2646c2.55957 0 3.58398 -1.53613 3.58398 -3.58398v-11.7764c0 -2.55957 -1.02441 -3.58398 -3.58398 -3.58398h-11.2646zM104.96 278.528
c2.55957 0 4.0957 -1.53613 3.58398 -3.58398v-11.2646c0 -2.55957 -1.02441 -3.58398 -3.58398 -3.58398h-11.2637c-1.53613 0 -3.58398 1.02441 -3.58398 3.58398v11.2646c0 2.55957 1.02344 3.58398 3.58398 3.58398h11.2637zM104.96 162.816
c2.55957 0 4.0957 -1.53613 3.58398 -3.58398v-11.2646c0 -2.55957 -1.02441 -3.58398 -3.58398 -3.58398h-11.2637c-1.53613 0 -3.58398 1.02441 -3.58398 3.58398v11.2646c0 2.55957 1.02344 3.58398 3.58398 3.58398h11.2637zM104.96 47.1035
c2.55957 0 4.0957 -1.02344 3.58398 -3.58398v-11.2637c0 -2.55957 -1.02441 -3.58398 -3.58398 -3.58398h-11.2637c-1.53613 0 -3.58398 1.02441 -3.58398 3.58398v11.2637c0 2.56055 1.02344 3.58398 3.58398 3.58398h11.2637zM219.136 189.44
c2.56055 0 4.09668 -2.04883 3.58398 -3.58398v-11.2646c0 -2.55957 -1.02344 -3.58398 -3.58398 -3.58398h-11.2637c-2.56055 0 -3.58398 1.53613 -3.58398 3.58398v11.2646c0 2.55957 1.02344 3.58398 3.58398 3.58398h11.2637zM269.312 189.44
c2.56055 0 3.58496 -2.04883 3.58496 -3.58398v-11.2646c0 -2.55957 -1.02441 -3.58398 -3.58496 -3.58398h-11.2637c-2.55957 0 -3.58398 1.53613 -3.58398 3.58398v11.2646c0 2.55957 1.02441 3.58398 3.58398 3.58398h11.2637zM384.512 231.936
c-2.04785 0 -4.0957 1.53613 -3.58398 3.58398v11.2646c0 2.55957 1.02441 3.58398 3.58398 3.58398h11.2646c2.55957 0 3.58398 -1.53613 3.58398 -3.58398v-11.2646c0 -2.55957 -1.02441 -3.58398 -3.58398 -3.58398h-11.2646zM479.744 433.664
c4.60742 -4.0957 7.67969 -9.72852 7.16797 -15.8721v-451.584c0 -11.7764 -8.7041 -20.4805 -20.4805 -20.4805h-28.6719h-128h-140.288h-35.8398h-88.0635c-11.7764 0 -20.4805 8.7041 -20.4805 20.4805v379.392c0 11.7764 8.7041 20.4805 20.4805 20.4805h168.96v27.1357
c0 9.72852 7.16797 17.9199 16.8955 19.9678h1.02441l231.936 25.0889c5.12012 0.511719 11.2646 -1.02441 15.3604 -4.6084zM133.632 -26.1123v0.512695h7.67969v275.968c0 11.7754 8.7041 20.4795 20.4805 20.4795h52.2236v67.0723h-161.279v-364.032h80.8955z
M264.704 -26.1123v0.512695h45.0557v268.8l-81.4082 -0.511719l-58.8799 -0.512695v-268.288h41.9844v49.1523c0 5.63184 4.6084 10.2402 10.2402 10.2402h32.7676c5.63184 0 10.2402 -4.6084 10.2402 -10.2402v-49.1523zM459.264 -26.1123h-0.511719v435.2l-216.576 -23.04
v-19.9678v-95.7441l75.2646 0.511719c11.7754 0 20.4795 -8.7041 20.4795 -20.4795v-276.48h100.353h20.9912zM219.136 106.496c2.56055 0 4.09668 -2.04785 3.58398 -3.58398v-11.2637c0 -2.56055 -1.02344 -3.58398 -3.58398 -3.58398h-11.2637
c-2.56055 0 -3.58398 1.53516 -3.58398 3.58398v11.2637c0 2.55957 1.02344 3.58398 3.58398 3.58398h11.2637zM269.312 106.496c2.56055 0 3.58496 -2.04785 3.58496 -3.58398v-11.2637c0 -2.56055 -1.02441 -3.58398 -3.58496 -3.58398h-11.2637
c-2.55957 0 -3.58398 1.53516 -3.58398 3.58398v11.2637c0 2.55957 1.02441 3.58398 3.58398 3.58398h11.2637zM292.352 326.656c-2.04785 0 -4.0957 2.04785 -3.58398 3.58398v11.2637c0 2.56055 1.02441 3.58398 3.58398 3.58398h11.2646
c2.55957 0 3.58398 -1.53613 3.58398 -3.58398v-11.2637c0 -2.56055 -1.02441 -3.58398 -3.58398 -3.58398h-11.2646z" />
    <glyph glyph-name="angle-double-left" unicode="&#xf10f;" 
d="M65.5361 192l218.112 -218.624c5.63184 -5.63184 5.63184 -14.3359 0 -19.9678c-2.56055 -2.56055 -6.14453 -4.09668 -9.72852 -4.09668s-7.16797 1.53613 -9.72754 4.09668l-224.769 224.768c-3.58398 3.58398 -5.63184 8.7041 -5.63184 13.8242
s2.04785 10.2402 5.63184 13.8242l224.769 224.768c5.63184 5.63184 14.3359 5.63184 19.9678 0s5.63184 -14.3359 0 -19.9678zM255.488 192l218.111 -218.624c5.63281 -5.63184 5.63281 -14.3359 0 -19.9678c-2.55957 -2.56055 -6.14355 -4.09668 -9.72754 -4.09668
s-7.16797 1.53613 -9.72852 4.09668l-224.768 224.768c-3.58398 3.58398 -5.63184 8.7041 -5.63184 13.8242s2.04785 10.2402 5.63184 13.8242l224.768 224.768c5.63281 5.63184 14.3369 5.63184 19.9688 0s5.63184 -14.3359 0 -19.9678z" />
    <glyph glyph-name="drupal-original" unicode="&#xf188;" 
d="M361.984 344.576c14.8477 -9.21582 107.008 -65.5361 108.031 -188.416c0 -124.416 -97.792 -206.336 -210.943 -206.336c-5.12012 0 -9.72852 0 -14.3359 0.511719h-1.02441c-4.6084 0.511719 -8.7041 1.02441 -13.3115 1.53613h-0.512695
c-9.21582 1.02441 -17.9199 3.07227 -26.624 5.12012c-0.511719 0 -1.53613 0.511719 -2.04785 0.511719c-3.58398 1.02441 -7.67969 2.56055 -11.2637 3.58398c-0.511719 0 -1.02441 0.511719 -1.53613 0.511719c-4.0957 1.53613 -8.19238 3.07227 -12.2881 4.6084
c-1.02441 0.511719 -1.53613 0.511719 -2.04785 1.02441c-3.58398 1.02344 -6.65625 2.55957 -9.72852 4.0957c-1.02344 0.511719 -2.04785 1.02344 -3.07129 1.53613c-3.07227 1.53613 -6.14453 3.07129 -9.21582 4.60742
c-0.512695 0.512695 -1.53613 0.512695 -2.04883 1.02441c-3.58398 2.04785 -6.65527 4.0957 -10.2393 6.14355c-1.02441 1.02441 -2.56055 1.53613 -3.58398 2.56055c-2.04883 1.53613 -4.6084 3.07227 -6.65625 4.60742
c-1.53613 1.02441 -2.56055 2.04883 -4.0957 3.07227c-2.04883 2.04785 -4.6084 3.58398 -6.65625 5.63184c-1.53613 1.53613 -3.07227 2.56055 -4.6084 4.09668c-2.04785 1.53516 -4.0957 3.58398 -6.14355 5.63184c-1.53613 1.53613 -2.56055 2.55957 -4.09668 4.0957
c-1.53516 1.53613 -3.07129 3.07227 -4.60742 4.6084s-2.56055 3.07129 -4.0957 4.60742c-1.02441 1.53613 -2.56055 3.58398 -4.09668 5.12012c-2.55957 2.56055 -4.60742 5.63184 -6.65527 8.19238c-1.02441 1.02344 -2.04883 2.55957 -3.07227 4.0957
c-1.53613 1.53613 -2.56055 3.58398 -4.09668 5.63184c-1.02344 1.53613 -1.53516 2.56055 -2.55957 4.09668c-1.02441 1.53516 -2.04785 3.07129 -3.07227 4.60742c-3.58398 6.14453 -6.65527 12.2881 -9.72754 18.9443c0 0.511719 -0.511719 1.02344 -0.511719 1.53613
c-1.53613 2.55957 -2.56055 5.63184 -3.58398 8.19141c-0.512695 1.02441 -0.512695 1.53613 -1.02441 2.56055c-1.02441 2.55957 -2.04785 5.12012 -3.07227 8.19141c-0.511719 0 -0.511719 0.512695 -0.511719 1.02441
c-3.07227 9.21582 -5.63184 18.9443 -7.16797 29.1836v1.02441c-0.511719 3.07227 -1.02441 6.65625 -1.53613 9.72754v1.53613c-0.511719 7.16797 -1.02441 14.3359 -1.02441 21.5039c0 60.416 23.5527 104.448 49.1523 134.656
c20.4805 24.0645 42.4961 38.9121 54.7842 46.5918c3.07227 2.04785 6.14355 3.58398 7.67969 4.6084c20.4805 11.2637 35.3281 16.8955 59.3926 35.8398c0.511719 0.511719 1.53613 1.02441 2.04785 1.53613c6.65625 6.14355 13.3115 14.3359 17.4082 28.1602
c2.04785 7.16797 3.58398 15.3594 4.60742 25.0879v0v0c16.8965 -19.9678 37.376 -43.5205 51.7119 -53.7598c3.07227 -1.53613 5.63184 -3.58398 8.7041 -5.12012c20.4805 -11.7764 40.96 -17.9199 61.9521 -31.2324c0.511719 0 0.511719 -0.511719 1.02441 -0.511719z
M90.624 266.752c1.53613 -1.02441 17.4082 -3.07227 51.7119 18.4316c34.3037 20.4805 49.1523 32.7686 68.6084 52.7363c10.2393 10.752 11.7754 16.8965 11.7754 19.4561c0 3.07227 -2.55957 4.6084 -6.14355 5.63184c-2.04785 0 -2.56055 1.02441 0 2.56055
c2.04785 1.53516 11.7754 6.14355 14.3359 8.19141c2.04785 2.04785 13.3115 9.21582 13.8242 21.5039c0.511719 11.7764 -0.512695 20.4805 -3.58398 31.2324c-4.09668 -30.7197 -13.3125 -40.4482 -26.1123 -50.1758
c-21.5039 -15.8721 -41.9844 -25.6006 -46.5918 -28.1602c-12.2881 -6.14453 -56.3203 -30.208 -79.3604 -65.5361c-6.65625 -10.752 0 -14.8477 1.53613 -15.8721zM364.544 -7.16797c3.58398 3.58398 2.55957 6.14355 2.04785 7.16797
c-0.511719 2.04785 -2.55957 4.6084 -6.65625 1.53613c-9.21582 -7.16797 -30.208 -15.3604 -60.416 -15.3604c-29.6953 0 -44.0312 6.14453 -53.2471 13.8242c-1.02441 1.02441 -1.02441 1.02441 -3.58398 1.02441c-3.07227 0 -4.6084 -1.02441 -7.16895 -3.07227
c-2.55957 -1.53613 -3.07129 -6.65625 0 -9.72852c20.4805 -18.9434 54.7842 -17.4072 79.8721 -14.8477c25.0889 2.04785 46.5928 16.8965 49.1523 19.4561zM282.624 35.3281c-5.12012 -4.6084 -6.14355 -8.19238 -4.0957 -12.2881
c3.07129 -3.58398 5.63184 -1.53613 13.8232 5.12012c8.19238 6.65625 13.3125 12.2881 29.6963 12.2881s19.4561 -6.14453 22.5283 -12.2881c3.58398 -6.14453 4.0957 -7.16797 7.16797 -5.12012c3.58398 1.53613 5.63184 4.6084 3.58398 9.21582
c-2.04785 4.6084 -5.12012 13.3125 -10.752 16.8965s-13.3125 4.0957 -20.9922 4.0957c-7.16797 0 -11.2637 0.511719 -19.4561 -2.55957c-7.67969 -3.07227 -16.3838 -10.7529 -21.5039 -15.3604zM407.04 31.7441c12.7998 -1.02441 19.9678 5.12012 31.7441 21.5039
c11.2637 16.3838 15.8721 43.0078 15.8721 57.3438s-6.65625 38.9121 -30.208 38.9121c-22.0166 0 -67.0723 -46.0801 -90.624 -46.5918c-27.6484 -0.511719 -65.5361 54.2715 -120.32 53.7598c-43.0078 -0.511719 -77.3115 -34.8154 -77.8242 -71.168
c-0.511719 -20.4795 6.65625 -35.8398 20.4805 -45.5684c9.72754 -6.14355 17.9199 -10.2393 46.0801 -10.2393c46.5918 0 105.472 57.8555 132.607 56.832c21.5039 -1.02441 55.2959 -53.248 72.1924 -54.7842z" />
    <glyph glyph-name="remove-file" unicode="&#xf23d;" 
d="M413.696 430.08c11.7754 0 21.5039 -9.72852 21.5039 -22.0156v-432.129c0 -12.2871 -10.2402 -22.0156 -22.0166 -22.0156h-171.52c-2.56055 0 -5.12012 1.02441 -7.16797 3.07227l-154.624 152.063c-2.04785 1.53613 -3.07227 4.6084 -3.07227 7.16797v291.841
c0 12.2871 10.2402 22.0156 22.0166 22.0156h314.88zM228.864 2.04785v101.888h-103.424zM407.04 -17.9199v419.84h-302.08v-269.824h132.608c11.2637 0 19.4561 -8.7041 19.4561 -19.4561v-130.56h150.016zM198.656 266.24c-7.68066 0 -14.3359 5.63184 -14.3359 13.8242
c0 8.19141 6.65527 14.3359 14.3359 14.3359h115.2c7.67969 0 13.8232 -5.63281 13.8232 -13.8242c0 -8.19238 -6.65527 -14.3359 -14.3359 -14.3359h-114.688z" />
    <glyph glyph-name="Bullhorn" unicode="&#xf101;" 
d="M419.328 438.784c41.4717 0 76.2881 -34.8164 75.7754 -76.2881v-221.696c0 -41.9834 -34.3037 -76.2881 -76.2871 -76.2881c-30.7207 0 -56.832 17.9199 -69.1201 44.0322l0.511719 -1.02441l-198.656 16.8965l22.0166 -119.808
c3.07129 -14.8486 -1.02441 -29.6963 -10.752 -41.4727c-9.72852 -11.7754 -24.0645 -18.4316 -39.4248 -18.4316c-24.0635 0 -45.5674 17.4082 -50.1758 41.4717l-26.624 142.336c-17.4082 7.68066 -30.208 25.0879 -30.208 45.5684v155.136
c0 27.1357 22.0166 49.1523 49.1523 49.1523h80.8955l204.288 17.4082l-0.511719 -1.02441c12.2881 26.1123 38.4004 44.0322 69.1201 44.0322zM44.5439 329.728v-155.136c0 -11.7754 9.21582 -20.9922 20.9922 -20.9922h68.0957v197.12h-68.0957
c-11.7764 0 -20.9922 -9.21582 -20.9922 -20.9922zM141.312 -18.4316c4.6084 5.12012 6.14453 11.7754 5.12012 18.4316l-23.04 125.44h-47.1035l24.5762 -133.633c2.04785 -10.752 11.7754 -18.4316 22.5273 -18.4316c7.16797 0 13.3125 3.07227 17.9199 8.19238z
M161.792 152.064l181.248 -15.3604v4.60742v221.185v4.60742l-181.248 -15.3594v-199.68zM467.456 141.312v221.185c0 26.1123 -22.0156 48.1279 -48.1279 48.1279c-26.624 0 -48.1279 -21.5039 -48.1279 -48.1279v-221.185c0 -26.623 21.5039 -48.1279 48.1279 -48.1279
s48.1279 21.5049 48.1279 48.1279z" />
    <glyph glyph-name="friendly" unicode="&#xf1a4;" 
d="M256 441.344c137.728 0 249.856 -111.616 249.856 -249.344s-112.129 -249.856 -249.856 -249.856s-249.344 112.129 -249.344 249.856s111.616 249.344 249.344 249.344zM256 -29.6963c121.856 0 221.696 99.8398 221.696 221.185
c0 122.368 -99.8398 221.695 -221.696 221.695s-221.184 -99.3271 -221.184 -221.184s99.3271 -221.696 221.184 -221.696zM151.04 271.36c0 14.9863 12.1494 27.1357 27.1357 27.1357c14.9873 0 27.1357 -12.1494 27.1357 -27.1357
c0 -14.9873 -12.1484 -27.1367 -27.1357 -27.1367c-14.9863 0 -27.1357 12.1494 -27.1357 27.1367zM306.688 271.36c0 14.9863 12.1484 27.1357 27.1357 27.1357c14.9863 0 27.1357 -12.1494 27.1357 -27.1357c0 -14.9873 -12.1494 -27.1367 -27.1357 -27.1367
c-14.9873 0 -27.1357 12.1494 -27.1357 27.1367zM417.792 222.72c7.67969 -1.53613 12.2881 -9.21582 11.2637 -15.8721c-8.7041 -39.9355 -31.7441 -75.2637 -65.0234 -98.8154c-27.1357 -18.9443 -58.8799 -29.1846 -91.6484 -29.1846
c-7.67969 0 -15.3594 0.512695 -23.04 1.53613c-7.67969 1.02441 -12.7998 8.19238 -11.7754 15.8721c1.02344 7.67969 8.19141 12.7998 15.8721 11.7764c33.2793 -5.12012 67.0713 3.07129 94.7197 22.5273c27.6475 19.4561 46.5918 48.1289 53.248 81.4082
c1.53613 7.16797 8.7041 12.2881 16.3838 10.752z" />
    <glyph glyph-name="alarm-clock" unicode="&#xf106;" 
d="M427.008 278.016c23.04 -33.792 36.8643 -74.2393 37.376 -117.76c0 -114.688 -93.1836 -207.872 -207.872 -207.872c-114.688 0 -207.872 93.1846 -207.872 207.872c0 44.5439 14.3359 86.0166 38.4004 119.809c-13.8242 12.7998 -21.5039 30.208 -21.5039 48.6396
c0 37.8877 30.7197 68.6074 68.6074 68.6074c26.624 0 50.1768 -15.3594 61.4404 -38.3994c14.8477 4.60742 30.7197 7.67969 46.5918 8.7041v35.8398h-26.624c-8.19141 0 -14.3359 6.14355 -14.3359 14.3359s6.65625 14.3359 14.3359 14.3359h80.8965
c8.19141 0 14.3359 -6.14355 14.3359 -14.3359s-6.65625 -14.3359 -14.3359 -14.3359h-26.624v-35.8398c17.9199 -1.02441 34.8154 -4.6084 50.6875 -9.72852c10.752 24.0645 34.3047 40.4482 61.9521 40.4482c37.8877 0 68.6084 -30.7197 68.6084 -68.6084
c0 -19.9678 -9.21582 -38.9111 -24.0645 -51.7119zM382.464 370.176c-15.3604 0 -29.1836 -9.21582 -35.8398 -23.04c24.0645 -11.7754 45.0557 -27.6475 62.9756 -47.1035c8.19238 7.67969 13.3125 18.4316 13.3125 29.6953c0 22.5283 -17.9199 40.4482 -40.4482 40.4482z
M93.1836 328.704c0 -9.72852 4.09668 -19.4561 10.752 -26.624c18.4326 19.4561 39.9365 35.3281 64.5127 46.5918c-6.65625 12.2881 -19.9678 20.4805 -34.8164 20.4805c-22.5283 0 -40.4482 -17.9199 -40.4482 -40.4482zM256 -19.4561
c98.8164 0 179.712 80.8965 179.712 179.712c0 41.4717 -14.3359 79.8721 -38.4004 110.592c-1.02344 1.02441 -2.04785 2.04883 -2.55957 3.07227c-18.4316 22.5283 -41.9844 40.4482 -69.1201 51.7119c-1.02344 0 -1.53613 0.511719 -2.55957 1.02441
c-19.4561 7.67969 -40.4482 12.2881 -62.9766 12.7998c-1.53613 0 -2.55957 -0.511719 -4.0957 -0.511719s-3.07227 0 -4.0957 0.511719c-19.9688 -0.511719 -39.4238 -4.0957 -57.3447 -10.752c-1.53516 -1.02441 -3.07129 -1.53613 -5.11914 -2.04785h-0.512695
c-27.1357 -11.2646 -50.6875 -28.6719 -69.6318 -50.6885c0 -0.511719 -0.511719 -0.511719 -0.511719 -1.02344c-1.02441 -1.53613 -2.04785 -2.56055 -3.58398 -3.58398c-24.5762 -30.208 -38.9121 -69.1201 -38.9121 -111.104
c0 -99.3281 80.8955 -179.712 179.712 -179.712zM361.472 162.816c7.68066 0 13.8242 -6.14453 13.8242 -14.3359c0 -8.19238 -6.65625 -14.3369 -14.3359 -14.3369h-91.1357v-21.5039c0 -8.19141 -6.14453 -14.3359 -14.3359 -14.3359
c-8.19238 0 -14.3359 6.65625 -14.3359 14.3359v21.5039h-21.5039c-8.19238 0 -14.3369 6.14453 -14.3369 14.3369c0 8.19141 6.65625 14.3359 14.3369 14.3359h21.5039v106.495c0 8.19238 6.14355 14.3369 14.3359 14.3369c8.19141 0 14.3359 -6.65625 14.3359 -14.3369
v-106.495h91.6475z" />
    <glyph glyph-name="quora" unicode="&#xf237;" 
d="M451.072 19.9678c5.63184 -2.55957 9.72754 -8.19141 8.7041 -12.7998v-40.4482c0 -8.7041 -6.65625 -15.3594 -14.8486 -15.3594h-8.7041c-7.67969 -1.53613 -15.3594 -2.04883 -23.5518 -2.04883c-32.7676 0 -58.3682 11.2646 -78.3359 34.8164
c-25.0879 -9.21582 -51.2002 -13.8242 -78.3359 -13.8242c-64 0 -123.392 25.0879 -167.936 71.168c-44.5449 46.0801 -67.584 106.496 -65.0244 170.496c4.6084 120.832 102.912 219.136 223.744 223.744c64 2.04785 124.928 -20.9922 170.496 -65.0234
c45.5674 -44.5449 71.168 -103.937 71.168 -167.937c0 -72.1924 -22.5283 -124.928 -70.6562 -166.4v0c6.14355 -5.11914 14.8477 -9.72754 26.1123 -13.8232zM432.64 -22.0156v18.9434c-10.2393 3.58398 -33.792 13.3125 -46.0801 32.7686
c-7.16797 10.752 2.04883 18.9434 12.8008 28.1602v0c35.3281 30.208 54.2715 66.5596 59.3916 115.199c6.14453 55.2959 -18.4316 134.656 -57.8555 174.08c-40.4482 40.96 -95.2324 62.4639 -153.089 60.416c-105.983 -4.0957 -192.512 -90.624 -196.607 -196.607
c-2.04785 -59.9043 20.9922 -116.225 64.5117 -157.696c38.4004 -35.8398 89.5996 -55.8076 141.824 -55.8076c26.624 0 52.2236 5.63184 76.2881 15.3594l6.65625 2.56055c2.04785 1.02344 4.60742 0.511719 6.14355 -1.53613l4.0957 -5.63184
c15.8721 -22.0166 34.8164 -31.7441 62.4639 -31.7441c6.65625 0 12.8008 0.511719 19.4561 1.53613zM258.048 374.272c28.1602 0 54.2725 -10.7529 73.2158 -30.208c22.0166 -20.4805 33.2803 -49.6641 33.2803 -79.8721v-126.465
c0 -8.70312 -1.02441 -17.4072 -3.07227 -26.1113l-3.58398 -13.3125c-1.02344 -3.07129 -5.12012 -4.60742 -8.19141 -2.55957l-10.752 8.19141c-19.4561 15.3604 -42.4961 23.04 -67.0723 23.5527v-21.5039c14.8477 -4.6084 36.8643 -19.9688 50.6875 -32.2568
l8.19238 -7.16797c2.04785 -2.04785 2.04785 -5.63184 -0.511719 -7.67969l-8.7041 -6.65625c-18.4326 -13.8232 -40.4482 -20.9912 -64 -20.9912c-59.3926 0.511719 -106.496 50.6875 -106.496 110.079v122.881c0 58.8799 48.1279 110.08 107.008 110.08zM337.408 139.776
v127.487c0 20.9922 -8.19238 40.96 -23.04 55.8086c-14.8486 14.8477 -34.8164 23.04 -55.8086 23.04c-43.5195 0 -78.8477 -35.3281 -78.8477 -78.8486v-129.536c0 -43.5195 35.3281 -78.8477 78.8477 -78.8477c10.752 0 20.9922 2.04785 30.7207 6.14453
c-10.2402 7.67969 -19.9688 12.7998 -25.0879 14.3359l-8.19238 2.04785c-6.65625 2.04785 -11.2637 8.19141 -11.2637 14.8477v45.0557c0 8.7041 7.16797 15.3604 15.3594 15.3604h10.752c23.5527 0 46.0801 -6.14355 66.5605 -16.8955z" />
    <glyph glyph-name="facebook" unicode="&#xf194;" 
d="M292.352 -54.7842h-68.0957c-16.3838 0 -30.208 13.8242 -30.208 30.208v183.809h-56.3203c-16.3838 0 -30.208 13.8232 -30.208 30.208v52.7354c0 16.3838 13.8242 30.208 30.208 30.208h55.8086v47.6162c0 70.6562 46.5918 118.272 116.224 118.272h51.7119
c16.3848 0 30.208 -13.8242 30.208 -30.208v-62.4648c0 -16.3838 -13.8232 -30.208 -30.208 -30.208h-35.8398h-2.55957v-2.04785v-40.96h51.2002c9.21582 0 17.9199 -4.0957 23.5518 -11.2637s8.19141 -16.3838 6.14355 -25.0879v0l-10.752 -52.2246
c-2.55957 -13.8232 -15.3594 -24.0635 -29.6963 -24.0635h-40.96v-184.32c0 -15.8721 -13.8232 -30.208 -30.208 -30.208zM137.728 244.224c-1.02344 0 -2.04785 -1.02344 -2.04785 -2.04785v-53.248c0 -1.02344 1.02441 -2.04785 2.04785 -2.04785h84.4805v-211.456
c0 -1.02344 1.02441 -2.04785 2.04785 -2.04785h68.0957c1.02441 0 2.04883 1.02441 2.04883 2.04785v212.48h69.1191c1.02441 0 2.04883 0.511719 2.04883 1.02344l10.752 52.7363c0 1.02441 0 1.53613 -0.512695 2.04785
c-0.511719 0.511719 -1.02344 0.511719 -2.04785 0.511719h-78.8477v69.1201c0 18.4326 5.12012 30.208 30.7197 30.208h35.8398c1.02441 0 2.04785 1.02441 2.04785 2.04785v62.9766c0 1.02344 -1.02344 2.04785 -2.04785 2.04785h-51.7119
c-53.248 0 -88.0635 -35.3281 -88.0635 -90.1123v-75.7754h-83.9688v-0.512695z" />
    <glyph glyph-name="cloudy-sun" unicode="&#xf161;" 
d="M407.552 256.512c0 -14.8477 -3.58398 -29.6953 -10.752 -43.0078c18.4326 -22.5283 28.6719 -50.1758 28.6719 -79.3604c0 -70.1436 -56.832 -126.464 -126.976 -126.976h-193.536c-52.7363 1.02441 -95.2324 44.0322 -95.2324 96.7676
c0 50.1768 37.8887 91.1367 86.5283 96.2568c3.07227 64 56.3203 115.199 121.344 115.199c9.72852 0 18.9443 -1.02344 27.6484 -3.07129c17.4082 21.5039 43.5195 34.8154 71.6797 34.8154c50.1758 0 90.624 -40.4473 90.624 -90.624zM379.392 256.512
c0 34.8164 -27.6475 62.4639 -62.4639 62.9766c-16.8955 0 -32.2559 -6.14453 -43.5195 -17.4082c18.9434 -10.2402 34.8154 -25.0879 46.5918 -43.5205c20.4805 -3.58398 39.4238 -11.7754 55.2959 -24.0635c2.56055 6.65625 4.0957 14.3359 4.0957 22.0156z
M298.496 35.8398c54.2715 0 98.8154 44.0322 98.3037 97.2803c0 24.5762 -9.21582 48.1279 -26.1113 66.5596c-15.3604 16.8965 -37.377 28.1602 -60.9287 30.7207l-7.16797 1.02344l-3.58398 6.65625c-10.752 20.4795 -29.6963 36.8643 -51.2002 44.0322h-0.511719
c-8.19238 3.58398 -17.9199 5.12012 -29.1836 5.12012c-51.2002 0 -93.1846 -41.4727 -93.1846 -93.1846v-20.9922h-17.9199c-37.8877 0 -68.6074 -30.7197 -68.6074 -68.6074c0 -37.8887 30.7197 -68.6084 68.6074 -68.6084h191.488zM316.928 377.344
c-7.67969 0 -13.8242 6.65625 -13.8242 14.3359v35.8398c0 7.68066 5.63281 14.3369 13.8242 14.3369c8.19238 0 14.3359 -6.65625 14.3359 -14.3369v-35.8398c0 -8.19141 -6.65527 -14.3359 -14.3359 -14.3359zM412.672 337.92
c-3.58398 0 -7.16797 1.53613 -10.2402 4.0957c-5.63184 5.63281 -5.63184 14.3359 0 19.9688l25.6006 25.5996c5.63184 5.63184 14.3359 5.63184 19.9678 0s5.63184 -14.3359 0 -19.9678l-25.5996 -25.6006c-2.56055 -2.55957 -6.14453 -4.0957 -9.72852 -4.0957z
M487.936 270.848c7.68066 0 14.3369 -6.14355 14.3369 -14.3359c0 -8.19141 -6.65625 -14.3359 -14.3369 -14.3359h-35.8398c-8.19141 0 -14.3359 6.14453 -14.3359 14.3359c0 8.19238 6.65625 14.3359 14.3359 14.3359h35.8398zM211.456 342.016l-26.1123 25.6006
c-5.63184 5.63184 -5.63184 14.3359 0 19.9678s14.3359 5.63184 19.9678 0l25.6006 -25.5996c5.63184 -5.63281 5.63184 -14.3359 0 -19.9688c-2.56055 -2.55957 -6.14453 -4.0957 -9.72852 -4.0957s-7.16797 1.53613 -9.72754 4.0957z" />
    <glyph glyph-name="cloud-download" unicode="&#xf15d;" 
d="M500.736 159.232c0 -79.8721 -62.9766 -144.896 -141.312 -148.48h-1.53613h-235.52h-0.511719c-60.416 1.02441 -109.568 51.2002 -109.568 112.128c0 58.8799 45.0557 107.521 102.4 112.64c2.55957 76.2881 65.5352 137.729 142.336 137.729
c16.8955 0 31.7432 -3.07227 45.5674 -8.19238v0h0.511719v0v0c31.2324 -11.2637 57.3447 -32.2559 74.2402 -60.416c31.2324 -4.60742 59.9043 -19.9678 81.9199 -43.0078c1.02441 -0.511719 1.53613 -1.02344 2.56055 -2.04785
c25.0879 -27.6484 38.9121 -63.4883 38.9121 -100.352zM352.256 38.9121c66.0479 0 120.32 53.7598 119.809 120.32c0 29.6953 -11.2646 58.3672 -31.7441 80.8955v0.511719l-0.512695 -0.511719c-19.4561 20.9922 -45.5674 34.3037 -73.7275 37.376l-7.16797 1.02441
l-3.58398 6.65527c-13.8242 25.0889 -35.8398 44.5439 -62.9766 53.7607v0h-0.511719c-10.2402 4.0957 -22.0156 6.14355 -35.8398 6.14355c-62.9756 0 -114.176 -51.2002 -114.176 -114.176v-23.04h-17.9199c-46.5928 0 -84.4805 -37.8877 -84.4805 -84.4805
c0 -46.5918 37.8877 -84.4795 84.4805 -84.4795h228.352zM290.304 136.704c5.63184 4.60742 13.3125 4.60742 17.9199 0c6.65625 -6.14453 6.14453 -16.3838 -0.511719 -22.0156l-49.1523 -38.9121c-1.53516 -1.53613 -4.0957 -1.53613 -6.14355 0l-49.1523 38.9121
c-7.16797 5.63184 -7.67969 15.8711 -0.511719 22.0156c5.12012 4.60742 13.3125 4.0957 18.4316 0l20.4805 -15.8721v107.008c0 8.7041 7.67969 15.3604 16.8955 13.8242c6.65625 -1.53613 11.2646 -7.67969 11.2646 -14.3359v-106.496z" />
    <glyph glyph-name="cool" unicode="&#xf16c;" 
d="M256 441.344c137.728 0 249.856 -111.616 249.856 -249.344s-111.616 -249.856 -249.345 -249.856c-137.728 0 -249.855 112.129 -249.855 249.856c0 39.9355 9.21582 77.8242 26.1113 111.616c0.512695 1.02344 1.02441 2.04785 1.53613 3.07227
c41.4727 79.8711 125.44 134.655 221.696 134.655zM256 413.184c-77.8242 0 -145.92 -39.9355 -185.344 -100.863h370.688c-39.4238 60.416 -107.52 100.863 -185.344 100.863zM256 -29.6963c121.856 0 221.696 99.8398 222.208 221.696
c0 32.7676 -7.67969 64 -20.4805 92.1602h-71.6797v-18.9443c0 -30.7197 -24.5762 -55.2959 -55.2959 -55.2959v0c-30.7197 0 -55.2959 24.5762 -55.2959 55.2959v18.9443h-43.0078v-18.9443c0 -30.7197 -24.5762 -55.2959 -55.2959 -55.2959v0
c-30.7207 0 -55.2959 24.5762 -55.2959 55.2959v18.9443h-66.5605c-13.3115 -27.6484 -20.4795 -59.3926 -20.4795 -92.1602c0 -121.856 99.3271 -221.696 221.184 -221.696zM346.624 137.216c5.63184 5.12012 14.3359 5.12012 19.9678 -0.511719
s5.12012 -14.8477 -0.511719 -19.9678c-30.208 -28.1602 -69.1201 -43.5205 -110.08 -43.5205c-41.4717 0 -80.3838 15.3604 -110.08 43.5205c-5.63184 5.63184 -5.63184 14.3359 -0.511719 19.9678c5.63184 5.63184 14.3359 5.63184 19.9678 0.511719
c24.5762 -23.04 56.832 -35.8398 90.624 -35.8398s66.0479 12.7998 90.624 35.8398z" />
    <glyph glyph-name="circle-minus" unicode="&#xf158;" 
d="M394.24 204.8c7.67969 0 14.3359 -6.14355 14.3359 -14.3359c0 -8.19141 -6.65625 -14.3359 -14.3359 -14.3359h-275.968c-8.19238 0 -14.3369 6.14453 -14.3369 14.3359c0 8.19238 6.65625 14.3359 14.3369 14.3359h275.968zM256 436.224
c134.656 0 244.736 -109.567 245.248 -244.224c0 -135.168 -110.08 -244.736 -244.736 -244.736c-135.168 0 -244.735 110.08 -244.735 244.736s109.567 244.224 244.224 244.224zM256 -24.5762c119.296 0 216.576 96.7686 216.576 216.064
s-97.2803 216.576 -216.576 216.576s-216.576 -96.7686 -216.576 -216.064s97.2803 -216.576 216.576 -216.576z" />
    <glyph glyph-name="list" unicode="&#xf1ed;" 
d="M171.52 319.488c-7.67969 0 -14.3359 6.14355 -14.3359 14.3359c0 8.19141 6.65625 14.3359 14.3359 14.3359h311.809c8.19141 0 14.3359 -6.14453 14.3359 -14.3359c0 -8.19238 -6.65625 -14.3359 -14.3359 -14.3359h-311.809zM483.328 205.824
c7.67969 0 13.8242 -6.14453 14.3359 -14.3359c0 -7.68066 -6.65625 -13.8242 -14.3359 -13.8242h-311.809c-8.19141 0 -14.3359 6.14355 -14.3359 13.8242c0 8.19141 6.65625 14.3359 14.3359 14.3359h311.809zM483.328 64.5117
c7.67969 0 14.3359 -6.14355 14.3359 -14.3359c0 -8.19141 -6.65625 -14.3359 -14.3359 -14.3359h-311.809c-8.19141 0 -14.3359 6.14453 -14.3359 14.3359c0 8.19238 6.65625 14.3359 14.3359 14.3359h311.809zM21.7529 317.1c-8.99707 8.99707 -8.99707 23.585 0 32.583
c8.99805 8.99707 23.5859 8.99707 32.583 0c8.99805 -8.99805 8.99805 -23.5859 0 -32.583c-8.99707 -8.99805 -23.585 -8.99805 -32.583 0zM21.5898 175.721c-8.99707 8.99805 -8.99707 23.5859 0 32.583c8.99805 8.99805 23.5859 8.99805 32.583 0
c8.99805 -8.99707 8.99805 -23.585 0 -32.583c-8.99707 -8.99707 -23.585 -8.99707 -32.583 0zM21.4268 34.3428c-8.99707 8.99805 -8.99707 23.5859 0 32.583c8.99805 8.99805 23.5859 8.99805 32.583 0c8.99805 -8.99707 8.99805 -23.585 0 -32.583
c-8.99707 -8.99707 -23.585 -8.99707 -32.583 0z" />
    <glyph glyph-name="upload" unicode="&#xf2ae;" 
d="M478.208 115.2c7.67969 0 13.8242 -6.65625 13.8242 -14.3359v-124.929c0 -11.7754 -10.752 -20.9912 -24.5762 -20.9912h-423.424c-13.8242 0 -24.5762 9.21582 -24.5762 20.9912v124.929c0 8.19141 6.14355 14.3359 14.3359 14.3359s14.3359 -6.65625 14.3359 -14.3359
v-117.761h415.744v117.761c0 8.19141 6.65625 14.3359 14.3359 14.3359zM180.736 319.488c-3.58398 0 -7.16797 1.53613 -9.72852 4.0957c-5.63184 5.63184 -5.63184 14.3359 0 19.9678l85.5039 85.5039l84.4805 -85.5039c5.63184 -5.63184 5.63184 -14.3359 0 -19.9678
s-14.3359 -5.63184 -19.9678 0l-50.6885 51.2002v-286.208c0 -8.19238 -6.14355 -14.3359 -14.3359 -14.3359s-14.3359 6.65625 -14.3359 14.3359v286.208l-51.2002 -51.2002c-2.55957 -2.55957 -6.14355 -4.0957 -9.72754 -4.0957z" />
    <glyph glyph-name="magnet" unicode="&#xf1ef;" 
d="M440.32 375.808c75.2637 -76.2881 75.2637 -199.68 0 -274.943l-142.336 -142.849c-4.6084 -4.60742 -10.752 -7.16797 -17.4082 -7.16797s-12.7998 2.56055 -17.4082 7.16797l-72.7041 72.7041c-9.72754 9.21582 -9.72754 24.5762 0 34.3047l135.68 136.191
c8.19238 8.19238 12.8008 19.9678 12.2881 32.2559c-1.02344 12.2881 -6.14355 23.5527 -15.8721 31.2324c-16.8955 13.8242 -42.4951 12.2881 -58.8799 -4.0957l-134.144 -134.145c-4.6084 -4.60742 -10.752 -7.16797 -17.4082 -7.16797s-12.7998 2.56055 -17.4082 7.16797
l-72.7041 72.7041c-9.72754 9.21582 -9.72754 24.5762 0 34.3037l143.36 142.336c36.8643 36.8643 85.5039 57.3447 137.728 57.3447h0.512695c51.7119 0 100.352 -20.4805 136.704 -57.3447zM112.128 148.48l67.0723 66.5596l-67.584 67.584l-66.5605 -66.5596z
M280.576 -19.4561l66.5596 66.5596l-67.584 67.585l-66.5596 -66.5605zM420.352 120.32c64.5127 64.5117 64.5127 170.496 0 235.52c-30.7197 31.7441 -72.1914 49.1523 -116.735 49.1523h-0.512695c-44.5439 0 -86.5273 -17.4082 -118.271 -49.1523l-53.248 -53.248
l67.0723 -67.0723l45.0557 45.0566c26.1123 26.1123 68.6084 28.6719 96.7686 5.63184c15.3594 -12.7998 24.5752 -31.7441 25.5996 -51.7119c1.02344 -19.9678 -6.14453 -39.4238 -20.4805 -53.7598l-46.0801 -46.0801l67.584 -67.584z" />
    <glyph glyph-name="text-allign-center" unicode="&#xf290;" 
d="M95.2324 369.152c-7.68066 0 -14.3359 6.14355 -14.3359 14.3359c0 8.19141 6.14355 14.3359 14.3359 14.3359h321.535c7.68066 0 14.3359 -6.14453 14.3359 -14.3359c0 -8.19238 -6.65527 -14.3359 -14.3359 -14.3359h-321.535zM60.416 241.152
c-7.67969 0 -14.3359 6.14355 -14.3359 14.3359c0 8.19141 6.65625 14.3359 14.3359 14.3359h391.168c7.67969 0 14.3359 -6.14453 14.3359 -14.3359c0 -8.19238 -6.14355 -14.3359 -14.3359 -14.3359h-391.168zM118.784 142.336h274.432
c7.68066 0 14.3359 -6.14355 14.3359 -14.3359s-6.14355 -14.3359 -14.3359 -14.3359h-274.432c-7.68066 0 -14.3359 6.14355 -14.3359 14.3359s6.65527 14.3359 14.3359 14.3359zM486.4 14.8477c7.67969 0 14.3359 -6.14355 14.3359 -14.3359
c0 -8.19141 -6.14453 -14.3359 -14.3359 -14.3359h-460.801c-7.67969 0 -14.3359 6.14453 -14.3359 14.3359c0 8.19238 6.65625 14.3359 14.3359 14.3359h460.801z" />
    <glyph glyph-name="vector" unicode="&#xf2b2;" 
d="M906.752 184.32v15.3594h30.208v-15.3594h-30.208zM906.752 184.32v15.3594h30.208v-15.3594h-30.208zM920.064 190.976v1.53613c0.511719 -0.511719 1.53516 -1.02344 2.55957 -1.53613h-2.55957zM463.36 310.272c18.4316 -2.56055 33.2793 -17.4082 35.3281 -36.3525
c3.07129 -24.5762 -16.3848 -45.5684 -40.4482 -45.5684c-17.4082 0 -32.7686 11.2646 -38.4004 27.1367h-69.6318c44.5439 -29.1846 74.752 -77.8242 77.8242 -133.632h13.8242c5.63184 0 10.2393 -4.6084 10.2393 -10.2402v-27.6484
c0 -5.63184 -4.60742 -10.2402 -10.2393 -10.2402h-55.2969c-5.63184 0 -10.2393 4.6084 -10.2393 10.2402v27.6484c0 5.63184 4.60742 10.2402 10.2393 10.2402h13.3125c-4.6084 61.4395 -47.6162 112.64 -105.472 128.512
c-6.65625 -12.7998 -20.4805 -21.5039 -35.8408 -21.5039c-16.3838 0 -30.208 9.21582 -36.8633 22.5273c-59.9043 -14.3359 -105.473 -66.5596 -110.08 -129.535h13.3115c5.63184 0 10.2402 -4.6084 10.2402 -10.2402v-27.6484
c0 -5.63184 -4.6084 -10.2402 -10.2402 -10.2402h-55.2959c-5.63184 0 -10.2402 4.6084 -10.2402 10.2402v27.6484c0 5.63184 4.6084 10.2402 10.2402 10.2402h13.8242c3.58398 55.8076 33.792 104.447 77.8242 134.144h-69.6318
c-5.63281 -15.8721 -20.4805 -27.1357 -38.4004 -27.1357c-24.0645 0 -43.0078 20.9922 -40.4482 45.5674c2.04785 18.4326 17.4082 33.792 35.8398 35.8408c19.9688 2.04785 37.376 -9.72852 43.5205 -26.624h128c5.63184 15.8711 20.9922 27.1357 38.3994 27.1357
c17.4082 0 32.7686 -11.2646 38.4004 -27.1357h122.88c6.65625 16.8955 23.5518 29.1836 43.5205 26.624z" />
    <glyph glyph-name="chevron-down" unicode="&#xf14f;" 
d="M12.2881 296.448c-5.63184 5.63184 -5.63184 14.3359 0 19.9678s14.3359 5.63184 19.9678 0l224.256 -223.232l223.744 223.232c2.56055 2.55957 6.14453 4.0957 9.72852 4.0957s7.16797 -1.53613 9.72754 -4.0957c5.63184 -5.63184 5.63184 -14.3359 0 -19.9678
l-226.304 -226.305c-4.6084 -4.0957 -10.752 -6.65527 -16.8965 -6.65527c-6.14355 0 -12.2881 2.04785 -16.8955 6.65527z" />
    <glyph glyph-name="arrow-down" unicode="&#xf115;" 
d="M242.176 423.936c0 7.68066 6.14453 13.8242 13.8242 13.8242c8.19238 0 14.3359 -6.14355 14.3359 -13.8242v-424.447l50.6885 50.6875c5.63184 5.63184 14.3359 5.63184 19.9678 0c2.55957 -2.55957 4.0957 -6.14355 4.0957 -9.72754
s-1.53613 -7.16797 -4.0957 -9.72852l-74.752 -75.2637v0l-9.72852 -9.72852l-84.9922 84.9922c-5.63184 5.63184 -5.63184 14.3359 0 19.9688c5.63281 5.63184 14.3369 5.63184 19.9688 0l50.6875 -51.2002v424.447z" />
    <glyph glyph-name="instagram" unicode="&#xf1cc;" 
d="M256 310.272c65.0244 0 117.76 -53.248 117.76 -118.272s-52.7354 -118.272 -117.76 -118.272c-65.5361 0 -118.272 53.248 -118.272 118.272s52.7363 118.272 118.272 118.272zM256 101.888c49.6641 0 89.5996 40.4482 89.5996 90.1123
s-39.9355 90.1123 -89.5996 90.1123s-90.1123 -40.4482 -90.1123 -90.1123s40.4482 -90.1123 90.1123 -90.1123zM393.728 364.544c9.2168 0 18.9443 -3.07227 24.0645 -10.2402c6.14355 -6.14355 10.2402 -14.8477 10.2402 -23.5518v-0.511719
c0 -9.21582 -4.09668 -17.9199 -10.2402 -24.0645c-6.14355 -6.65625 -14.8477 -10.2402 -24.0645 -10.2402c-9.21582 0 -17.4072 3.58398 -24.0635 10.2402c-6.65625 6.14453 -10.2402 14.8486 -10.2402 24.0645s3.58398 17.4082 10.2402 24.0635
c6.14355 6.65625 14.8477 10.2402 24.0635 10.2402zM389.632 442.88c64.5117 0 117.248 -52.7363 117.248 -117.248v-267.264c0 -64.5117 -52.7363 -117.248 -116.736 -117.248h-267.775c-64.5117 0 -117.248 52.7363 -117.248 116.736v267.775
c0 64.5117 52.7363 117.248 117.248 117.248h267.264zM478.72 58.3682h0.512695v267.264c0 49.1523 -39.9365 89.0879 -89.0889 89.0879h-267.775c-49.1523 0 -89.0879 -39.9355 -89.0879 -89.0879v-267.264c0 -49.1523 39.9355 -89.0879 89.0879 -89.0879h267.264
c49.1523 0 89.0879 39.9355 89.0879 89.0879z" />
    <glyph glyph-name="crop" unicode="&#xf16e;" 
d="M488.96 20.9922c7.67969 0 14.3359 -5.63184 14.3359 -13.8242s-6.65625 -14.3359 -14.3359 -14.3359h-33.2803v-0.511719h0.512695v-33.2803c0 -8.19238 -6.14453 -14.3359 -14.3359 -14.3359c-8.19238 0 -14.3369 6.65625 -14.3369 14.3359v33.2803h-342.016v-33.2803
c0 -8.19238 -6.14355 -14.3359 -14.3359 -14.3359s-14.3359 6.65625 -14.3359 14.3359v33.2803v-0.512695h-33.792c-8.19238 0 -14.3359 6.14453 -14.3359 14.3359c0 8.19238 6.65625 14.3369 14.3359 14.3369h33.792v342.016h-32.2559
c-8.19238 0 -14.3359 6.14355 -14.3359 14.3359s6.65625 14.3359 14.3359 14.3359h32.2559v33.792c0 7.67969 5.63184 14.3359 13.8242 14.3359c8.19141 0 14.3359 -6.65625 14.3359 -14.3359v-33.792h350.208l24.0635 24.5762c5.63281 5.63184 14.3359 5.63184 19.9688 0
c5.63184 -5.63184 5.63184 -14.3359 0 -19.9678l-23.5527 -23.5527v-351.231h33.2803zM84.9922 363.008v-322.048l322.048 322.048h-322.048zM103.936 20.4805h323.072v0.511719h0.511719v323.072z" />
    <glyph glyph-name="burger" unicode="&#xf13c;" 
d="M459.264 263.168c24.5762 -12.2881 41.4727 -37.8877 40.96 -67.0723v-6.65527c0 -29.1846 -16.8955 -54.2725 -40.96 -67.0723c-2.04785 -35.3281 -17.4072 -68.6084 -42.4961 -93.6963c-27.6475 -27.6475 -64.5117 -43.0078 -103.936 -43.0078h-113.664
c-77.3115 0 -140.8 60.416 -146.432 136.704c-24.0645 12.2881 -40.96 37.8877 -40.96 67.0723v6.65527c0 29.6963 16.3838 54.7842 40.96 67.584c2.55957 34.3047 17.4072 66.5605 42.4961 91.6484c27.6475 27.6475 64.5117 43.0078 103.936 43.0078h113.664
c76.7998 0 140.288 -59.9043 146.432 -135.168zM115.2 335.36c-17.9199 -17.4082 -29.1846 -39.9365 -32.7686 -63.4883c1.53613 0.511719 3.58398 0.511719 5.12012 0.511719h337.408c1.53613 0 3.58398 -0.511719 5.12012 -0.511719
c-9.72852 55.2959 -58.8799 98.3037 -117.248 98.3037h-113.664c-31.7441 0 -61.4404 -12.2881 -83.9678 -34.8154zM87.5518 243.712c-26.1113 0 -47.6162 -21.5039 -47.1035 -48.1279v-1.53613l7.67969 5.12012c28.1602 17.9199 64.5117 19.9678 94.7197 4.6084
c19.4561 -9.72852 41.9844 -9.72852 61.4404 0l4.6084 2.55957c27.1357 13.8242 59.3916 13.8242 86.5273 0l4.6084 -2.55957c19.4561 -9.72852 41.9834 -9.72852 61.4395 0c29.6963 15.3594 66.0479 13.3115 94.7207 -4.6084l16.3838 -10.2402v0.512695v6.65527
c0 26.1123 -21.5039 47.6162 -47.6162 47.6162h-337.408zM396.8 48.6396c17.9199 17.9199 29.6963 40.96 33.792 65.5361c-2.04785 -0.511719 -3.58398 -0.511719 -5.63184 -0.511719h-337.408c-2.04785 0 -3.58398 0.511719 -5.63184 0.511719
c8.7041 -56.832 57.8564 -100.352 117.248 -100.352h113.664c31.7441 0 61.4404 12.2881 83.9678 34.8154zM424.96 141.824c15.8721 0 29.6963 7.67969 37.8877 19.9678l-22.0156 13.8242c-19.9678 12.7998 -45.5684 13.8242 -67.0723 3.07227
c-27.1357 -13.8242 -59.3916 -13.8242 -86.5273 0l-4.6084 2.55957c-19.4561 9.72754 -41.9844 9.72754 -61.4404 0l-4.60742 -2.55957c-27.1357 -13.8242 -59.3926 -13.8242 -86.5283 0c-20.9922 10.752 -47.1035 9.72754 -67.0723 -3.07227l-16.3838 -10.2402
c8.19238 -13.8242 23.5518 -23.5518 40.96 -23.5518h337.408zM150.528 307.2c0 5.65527 4.58398 10.2402 10.2393 10.2402c5.65625 0 10.2402 -4.58496 10.2402 -10.2402s-4.58398 -10.2402 -10.2402 -10.2402c-5.65527 0 -10.2393 4.58496 -10.2393 10.2402z
M246.784 334.848c0 5.65527 4.58398 10.2402 10.2402 10.2402c5.65527 0 10.2393 -4.58496 10.2393 -10.2402s-4.58398 -10.2393 -10.2393 -10.2393c-5.65625 0 -10.2402 4.58398 -10.2402 10.2393zM343.04 307.2c0 5.65527 4.58496 10.2402 10.2402 10.2402
s10.2393 -4.58496 10.2393 -10.2402s-4.58398 -10.2402 -10.2393 -10.2402s-10.2402 4.58496 -10.2402 10.2402zM343.04 78.8477c0 5.65527 4.58496 10.2402 10.2402 10.2402s10.2393 -4.58496 10.2393 -10.2402s-4.58398 -10.2393 -10.2393 -10.2393
s-10.2402 4.58398 -10.2402 10.2393zM246.784 51.2002c0 5.65527 4.58398 10.2402 10.2402 10.2402c5.65527 0 10.2393 -4.58496 10.2393 -10.2402s-4.58398 -10.2402 -10.2393 -10.2402c-5.65625 0 -10.2402 4.58496 -10.2402 10.2402zM150.528 78.8477
c0 5.65527 4.58398 10.2402 10.2393 10.2402c5.65625 0 10.2402 -4.58496 10.2402 -10.2402s-4.58398 -10.2393 -10.2402 -10.2393c-5.65527 0 -10.2393 4.58398 -10.2393 10.2393z" />
    <glyph glyph-name="invention" unicode="&#xf1cf;" 
d="M340.992 260.608v0c25.0879 -24.0645 38.3994 -56.3203 37.8877 -90.1123c0 -40.96 -19.4561 -78.3359 -53.248 -101.888v-56.832c0 -26.1123 -21.5039 -47.6162 -47.6162 -47.6162h-47.1035c-26.1123 0 -47.6162 21.5039 -47.6162 47.6162v57.3438
c-33.2803 23.5518 -52.2236 61.4395 -51.7119 102.912c1.02441 64.5117 51.7119 118.784 116.224 122.368c34.8164 2.04785 68.0967 -10.2402 93.1846 -33.792zM278.528 -8.19238c11.2637 0 19.4561 8.7041 19.9678 19.4561v50.6885h-86.5283v-50.6885
c0 -10.752 8.19238 -19.4561 19.4561 -19.4561h47.1045zM308.224 90.624c26.624 17.9199 42.4961 47.1035 42.4961 79.8721c0.512695 26.1123 -9.72754 51.2002 -29.1836 69.6318c-18.4326 16.8965 -41.4717 26.1123 -66.5605 26.1123h-5.63184
c-49.6641 -2.56055 -89.0879 -44.5439 -89.5996 -94.208c-0.511719 -33.2803 14.8477 -63.4883 41.9834 -81.4082h39.4248v20.4795l-35.8408 23.04c-6.14355 4.09668 -8.19141 12.8008 -4.0957 19.4561c4.0957 6.14453 12.7998 8.19238 19.4561 4.09668l20.4805 -13.3125
v22.5283c0 8.19141 6.65527 14.3359 14.3359 14.3359c7.67969 0 13.8232 -6.65625 13.8232 -14.3359v-22.5283l20.4805 13.3125c6.65625 4.60742 15.3604 2.55957 19.4561 -4.09668c4.6084 -6.65527 2.55957 -15.3594 -4.0957 -19.4561l-35.8408 -23.04v-20.4795h38.9121z
M256 350.208c-7.67969 0 -14.3359 6.65625 -14.3359 14.3359v41.4717c0 8.19238 6.65625 14.3359 14.3359 14.3359s13.8242 -6.65527 13.8242 -14.3359v-41.4717c0 -8.19238 -6.14453 -14.3359 -13.8242 -14.3359zM448 346.624
c5.63184 -5.12012 5.63184 -14.3359 -0.511719 -19.9678l-29.1846 -29.1846c-2.55957 -2.55957 -6.14355 -4.0957 -9.72754 -4.0957s-7.16797 1.53613 -9.72852 4.0957c-5.63184 5.63184 -5.63184 14.3359 0 19.9688l29.1846 29.1836
c5.63184 5.63184 14.3359 5.63184 19.9678 0zM83.9678 346.624l28.6719 -29.1836c5.63281 -5.63281 5.63281 -14.3369 0 -19.9688c-2.55957 -2.55957 -6.14355 -4.0957 -9.72754 -4.0957s-7.16797 1.53613 -9.72852 4.0957l-29.1836 29.1846
c-5.63184 5.63184 -5.63184 14.3359 0 19.9678s14.3359 5.63184 19.9678 0zM61.4404 168.96c7.67969 0 14.3359 -5.63184 14.3359 -13.8242c0 -8.19141 -6.65625 -14.3359 -14.3359 -14.3359h-41.4727c-7.67969 0 -14.3359 5.63184 -14.3359 13.8242
s6.65625 14.3359 14.3359 14.3359h41.4727zM492.032 168.96c7.67969 0 14.3359 -5.63184 14.3359 -13.8242c0 -8.19141 -6.65625 -14.3359 -14.3359 -14.3359h-41.4727c-7.67969 0 -14.3359 5.63184 -14.3359 13.8242s6.65625 14.3359 14.3359 14.3359h41.4727z" />
    <glyph glyph-name="video" unicode="&#xf2b3;" 
d="M482.816 208.896c5.63184 -3.58496 9.21582 -9.72852 9.72754 -16.8965v-168.448c0 -6.65527 -3.58398 -13.3115 -9.21582 -16.8955c-3.58398 -2.04785 -7.16797 -3.07227 -10.752 -3.07227c-3.07227 0 -6.14453 0.511719 -8.7041 2.04785v0l-92.6719 45.5684v-27.1357
c0 -10.7529 -8.7041 -19.4561 -19.4561 -19.4561h-312.32c-10.752 0 -19.4561 8.70312 -19.4561 19.4561v167.424c0 10.752 8.7041 19.4561 19.4561 19.4561h28.1602c-22.0156 9.72754 -37.376 31.2314 -37.376 56.832c0 34.3037 27.6484 62.4639 61.9521 62.4639
s62.4639 -28.1602 62.4639 -62.4639c0 -25.0879 -15.3604 -47.1045 -37.376 -56.832h125.952c-33.792 12.2881 -57.8564 44.0312 -57.8564 81.9199c0 48.1279 39.4238 87.5518 87.5527 87.5518c48.1279 0 87.5518 -39.4238 87.5518 -87.5518
c0 -37.376 -24.0645 -69.6318 -57.8564 -81.9199h48.6406c10.752 0 19.4561 -8.7041 19.4561 -19.4561v-27.1367l92.6719 45.5684c6.14355 3.07227 13.3115 2.56055 19.4561 -1.02344zM213.504 292.864c0 -32.7686 26.624 -59.3926 59.3926 -59.3926
c32.7676 0 59.3916 26.624 59.3916 59.3926c0 32.7676 -26.624 59.3916 -59.3916 59.3916c-32.7686 0 -59.3926 -26.624 -59.3926 -59.3916zM92.6719 302.08c-18.9443 0 -34.3037 -15.3604 -34.3037 -34.3037c0 -18.9443 15.3594 -34.3047 34.3037 -34.3047
s34.3037 15.3604 34.3037 34.3047c0 18.9434 -15.3594 34.3037 -34.3037 34.3037zM342.528 33.2803v44.5439v60.416v44.5439h-294.4v-149.504h294.4zM463.872 36.8643v142.336l-93.1836 -46.0801v-50.1758z" />
    <glyph glyph-name="download" unicode="&#xf182;" 
d="M478.208 115.2c7.67969 0 13.8242 -6.65625 13.8242 -14.3359v-124.929c0 -11.7754 -10.752 -20.9912 -24.5762 -20.9912h-423.424c-13.8242 0 -24.5762 9.21582 -24.5762 20.9912v124.929c0 8.19141 6.14355 14.3359 14.3359 14.3359s14.3359 -6.65625 14.3359 -14.3359
v-117.761h415.744v117.761c0 8.19141 6.65625 14.3359 14.3359 14.3359zM330.752 184.32c4.0957 0 7.67969 -1.53613 10.2402 -4.09668c5.63184 -5.63184 5.63184 -14.3359 0 -19.9678l-85.5039 -85.5039l-84.4805 85.5039c-5.63184 5.63184 -5.63184 14.3359 0 19.9678
c5.63184 5.63281 14.3359 5.63281 19.9678 0l50.6885 -51.1992v285.695c0 7.68066 5.63184 14.3359 13.8242 14.3359c8.19141 0 14.3359 -6.65527 14.3359 -14.3359v-285.695l51.2002 51.1992c2.55957 2.56055 6.14355 4.09668 9.72754 4.09668z" />
    <glyph glyph-name="investment" unicode="&#xf1d1;" 
d="M132.096 218.624c0 -7.67969 -6.65527 -13.8242 -14.3359 -14.3359h-74.752c-10.752 0 -19.4561 8.7041 -19.4561 19.4561v74.752c0 8.19238 6.14453 14.3359 14.3359 14.3359c8.19238 0 14.3359 -6.65625 14.3359 -14.3359v-45.0557
c27.6484 92.1592 111.616 155.647 208.385 156.159c99.8398 0 186.88 -67.584 210.943 -164.863c2.04785 -7.16797 -2.55957 -14.8486 -10.2402 -16.8965c-7.16797 -2.04785 -14.8477 2.56055 -16.8955 10.2402c-20.9922 84.4795 -96.7676 143.36 -183.808 143.36
s-162.816 -59.3926 -183.809 -144.385c0 -1.53613 -1.02344 -3.07129 -1.53613 -4.0957h42.4961c8.19238 0 14.3359 -6.65625 14.3359 -14.3359zM468.992 153.088c10.2402 0 18.9434 -8.7041 18.9434 -19.4561v-74.752c0 -8.19141 -6.14355 -14.3359 -14.3359 -14.3359
c-8.19141 0 -14.3359 6.65625 -14.3359 14.3359v47.6162c-33.792 -79.3604 -111.615 -131.072 -199.168 -131.072c-94.208 0 -177.151 59.9043 -206.336 148.992c-2.04785 7.67969 2.04785 15.3604 9.21582 17.9199c7.68066 2.04785 15.3604 -2.04785 17.9209 -9.21582
c25.5996 -77.8242 97.792 -130.048 179.712 -130.048c78.8477 0 148.991 48.6396 176.128 122.368h-43.5205c-7.67969 0 -13.8242 6.65527 -13.8242 14.3359c0 7.67969 6.14453 13.8232 14.3359 13.8232zM263.168 90.1123c-7.67969 0 -13.8242 6.14355 -12.7998 14.8477
v10.2402h-33.792c-8.19238 0 -14.3359 6.14355 -14.3359 14.3359c0 8.19141 6.65625 14.3359 14.3359 14.3359h47.1035h0.512695h0.511719h19.4561c9.72754 0 17.9199 8.19238 17.9199 17.9199s-8.19238 17.9199 -17.9199 17.9199h-47.1045
c-25.5996 0 -46.0801 20.9922 -46.0801 46.0801c0 12.2881 4.6084 23.5518 13.3125 32.2559s19.9678 13.3125 32.2559 13.3125h12.2881v10.2393c0 8.19238 6.65625 14.3359 14.3359 14.3359s13.8242 -6.65527 13.8242 -14.3359v-10.2393h27.1357
c8.19238 0 14.3359 -6.14453 14.3359 -14.3359c0 -8.19238 -6.65625 -14.3359 -14.3359 -14.3359h-68.0957c-5.12012 0 -9.21582 -1.53613 -12.7998 -5.12012c-3.07227 -3.58398 -5.12012 -8.19238 -5.12012 -12.8008c0 -9.72754 8.19141 -17.9199 17.9199 -17.9199h47.1035
c25.6006 0 46.0801 -20.4795 46.0801 -46.0801c0 -25.5996 -20.9922 -46.0791 -46.0801 -46.0791h-6.14355v-10.2402c0 -8.19238 -6.14453 -14.3359 -13.8242 -14.3359z" />
    <glyph glyph-name="chevron-left" unicode="&#xf151;" 
d="M360.448 435.712c5.63184 5.63184 14.3359 5.63184 19.9678 0s5.63184 -14.3359 0 -19.9678l-223.232 -224.256l223.232 -223.744c2.55957 -2.56055 4.0957 -6.14453 4.0957 -9.72852s-1.53613 -7.16797 -4.0957 -9.72754
c-5.63184 -5.63184 -14.3359 -5.63184 -19.9678 0l-226.305 226.304c-4.0957 4.6084 -6.65527 10.752 -6.65527 16.8965c0 6.14355 2.04785 12.2881 6.65527 16.8955z" />
    <glyph glyph-name="pinterest" unicode="&#xf221;" 
d="M10.2402 192c0 122.88 90.1113 224.768 208.384 243.2c4.0957 0.511719 8.19238 1.02344 12.2881 1.53613c8.19141 0.511719 16.3838 1.02344 25.0879 1.02344h12.7998c8.19238 -0.511719 16.3838 -1.53613 24.5762 -2.55957
c6.65625 -1.02441 12.7998 -2.56055 19.4561 -4.09668c7.67969 -1.53516 14.8477 -3.58398 22.0156 -6.14355c3.07227 -1.53613 6.65625 -2.55957 8.7041 -5.12012c91.6484 -35.3281 157.185 -124.928 157.185 -229.376c0 -135.68 -110.08 -245.76 -245.761 -245.76
c-3.58398 0 -7.67969 0.511719 -11.2637 0.511719h-3.07227c-2.55957 0 -5.63184 0 -8.19141 0.511719c-1.53613 0.512695 -2.56055 0.512695 -3.58398 0.512695c-3.58398 0.511719 -7.16797 1.02344 -10.752 1.53613h-1.02441
c-3.07227 0.511719 -6.65625 1.02344 -9.72754 1.53516c-1.02441 0.512695 -2.56055 0.512695 -3.58398 1.02441c-2.04883 0.511719 -4.6084 1.02441 -7.16797 1.53613c-1.02441 0.511719 -2.56055 0.511719 -3.58398 1.02441
c-3.58398 1.02344 -7.16797 2.04785 -10.2402 3.07129c10.2402 16.3838 25.0879 43.0078 30.7197 64.5127c3.07227 11.2637 15.3604 58.3672 15.3604 58.3672c8.19141 -15.3594 31.2314 -28.1592 56.3193 -28.1592c74.2402 0 127.488 68.6074 127.488 153.088
c0 80.8955 -66.0479 141.823 -151.552 141.823c-105.984 0 -162.304 -71.168 -162.304 -148.479c0 -35.8398 18.9434 -80.8965 49.6641 -95.2324c4.60742 -2.55957 7.16797 -1.53613 8.19141 3.07227c0.511719 3.07227 4.6084 19.9678 6.65625 27.6484
c0.511719 2.55957 0.511719 4.60742 -1.53613 7.16797c-10.2402 12.7998 -18.4316 35.3271 -18.4316 56.3193c0 54.2725 40.96 106.496 111.104 106.496c59.9043 0 102.4 -40.96 102.4 -99.8398c0 -66.5596 -33.792 -112.64 -77.3125 -112.64
c-24.0635 0 -41.9834 19.9678 -36.3516 44.5439c7.16797 29.1836 20.4795 60.9277 20.4795 81.9199c0 18.9434 -10.2393 34.8154 -31.2314 34.8154c-24.5762 0 -44.5439 -25.5996 -44.5439 -59.9033c0 -21.5039 7.16797 -36.3525 7.16797 -36.3525
s-24.0645 -103.424 -28.6719 -122.368c-5.12012 -21.5039 -3.07227 -51.1992 -1.02441 -70.6553c-1.53613 0.511719 -2.55957 1.02344 -4.0957 1.53613c-1.02441 0 -2.04785 0.511719 -3.07227 1.02344c-3.07227 1.53613 -6.65625 3.07227 -9.72754 4.6084
c-0.512695 0 -0.512695 0.511719 -1.02441 0.511719c-3.07227 1.53613 -5.63184 3.07227 -8.7041 4.6084c-1.02441 1.02344 -2.04785 1.53516 -3.07227 2.04785c-2.04785 1.02344 -4.0957 2.55957 -6.14355 3.58398c-1.53613 0.511719 -2.56055 1.53613 -3.58398 2.04785
c-2.04785 1.02344 -4.6084 2.55957 -6.65625 4.0957c-0.511719 0.512695 -1.53613 1.02441 -2.04785 1.53613c-2.55957 2.04785 -5.63184 4.0957 -8.19238 6.14453c-1.02344 1.02344 -2.04785 1.53516 -3.07129 2.55957c-1.53613 1.02441 -3.58398 2.55957 -5.12012 4.0957
c-1.02441 0.512695 -2.04785 1.53613 -3.07227 2.56055c-1.53613 1.53613 -3.58398 3.07129 -5.12012 4.60742c-0.511719 1.02441 -1.53613 1.53613 -2.55957 2.56055c-2.56055 2.55957 -4.6084 4.60742 -7.16797 7.16797
c-1.02441 0.511719 -1.53613 1.53613 -2.56055 2.55957c-1.53613 1.53613 -3.07227 3.58398 -4.60742 5.12012c-1.02441 1.02441 -2.04883 2.04785 -3.07227 3.07227c-1.02441 2.04785 -2.56055 3.58398 -4.0957 5.12012
c-1.02441 1.02344 -1.53613 2.04785 -2.56055 3.07129c-2.04785 2.56055 -4.0957 5.12012 -6.14355 7.68066c-0.512695 1.02344 -1.02441 1.53613 -1.53613 2.55957c-1.53613 2.04785 -3.07227 4.09668 -4.6084 6.14453c-1.02344 1.02344 -1.53613 2.55957 -2.55957 3.58398
c-1.02441 2.04785 -2.56055 3.58398 -3.58398 5.63184c-0.512695 1.02344 -1.53613 2.55957 -2.04785 3.58398c-1.53613 2.55957 -2.56055 4.60742 -4.09668 7.16797c-0.511719 1.02344 -1.02344 1.53613 -1.53613 2.55957
c-1.53516 2.56055 -3.07129 5.63281 -4.60742 8.7041c-0.511719 1.02441 -1.02441 2.56055 -1.53613 3.58398c-1.02441 2.56055 -2.04785 4.6084 -3.07227 6.65625c-0.511719 1.02441 -1.02344 2.55957 -1.53613 3.58398c-1.02344 2.55957 -2.04785 4.6084 -3.07129 7.16797
c-0.512695 1.02441 -0.512695 2.04785 -1.02441 3.07227c-1.53613 3.58398 -2.55957 6.65625 -3.58398 10.2402c-0.511719 1.02344 -0.511719 2.04785 -1.02344 3.07129c-0.512695 2.56055 -1.53613 5.12012 -2.04883 7.68066
c-0.511719 1.02344 -0.511719 2.55957 -1.02344 3.58398c-0.511719 2.55957 -1.02441 5.11914 -1.53613 7.67969c0 1.02344 -0.511719 2.04785 -0.511719 3.07227c-1.02441 3.58398 -1.53613 7.16797 -2.04883 10.752
c-0.511719 0.511719 -0.511719 1.53613 -0.511719 2.04785c-0.511719 3.07227 -0.511719 6.14355 -1.02344 9.21582c-0.512695 1.02441 -0.512695 2.55957 -0.512695 3.58398c0 2.55957 -0.511719 5.63184 -0.511719 8.19238v3.58398
c-0.511719 3.58398 -0.511719 7.16797 -0.511719 11.2637v0z" />
    <glyph glyph-name="sun" unicode="&#xf282;" 
d="M256 301.056c60.416 0 109.056 -48.6396 109.056 -109.056c0 -59.9043 -48.6396 -109.056 -109.056 -109.056c-59.9043 0 -109.056 48.6396 -109.056 109.056c0 59.9043 48.6396 109.056 109.056 109.056zM256 111.104c44.5439 0 80.8965 36.3525 80.8965 80.8965
s-36.3525 80.8965 -80.8965 80.8965s-80.8965 -36.3525 -80.8965 -80.8965s36.3525 -80.8965 80.8965 -80.8965zM256 370.688c-7.67969 0 -13.8242 6.14355 -13.8242 13.8232v37.8887c0 7.67969 5.63184 14.3359 13.8242 14.3359s14.3359 -6.65625 14.3359 -14.3359v-37.376
c0 -8.19238 -6.65625 -14.3359 -14.3359 -14.3359zM256 13.3115c7.67969 0 14.3359 -6.14355 14.3359 -13.8232v-37.8887c0 -8.19141 -6.14355 -14.3359 -14.3359 -14.3359s-14.3359 6.65625 -14.3359 14.3359v37.376c0 8.19238 6.65625 14.3359 14.3359 14.3359z
M409.088 365.056c5.12012 5.12012 14.3359 5.12012 19.4561 0c5.63184 -5.63184 5.63184 -14.3359 0 -19.9678l-26.624 -26.624c-2.55957 -2.55957 -6.14355 -4.0957 -9.72754 -4.0957s-7.16797 1.53613 -9.72852 4.0957c-5.63184 5.63184 -5.63184 14.3359 0 19.9678z
M110.08 65.5361c5.12012 5.63184 14.3359 5.63184 19.4561 0c5.63184 -5.63184 5.63184 -14.3359 0 -19.9678l-26.624 -26.624c-2.56055 -2.56055 -6.14453 -4.09668 -9.72852 -4.09668s-7.16797 1.53613 -9.72754 4.09668c-5.63184 5.63184 -5.63184 14.3359 0 19.9678z
M486.4 205.824c7.67969 0 14.3359 -6.14453 14.3359 -14.3359c0 -8.19238 -6.65625 -14.3359 -14.3359 -14.3359h-37.8887c-8.19141 0 -14.3359 6.14355 -14.3359 14.3359c0 8.19141 6.65625 14.3359 14.3359 14.3359h37.8887zM63.4883 205.824
c7.67969 0 14.3359 -6.14453 14.3359 -14.3359c0 -8.19238 -6.65625 -14.3359 -14.3359 -14.3359h-37.8887c-8.19141 0 -14.3359 6.14355 -14.3359 14.3359c0 8.19141 6.65625 14.3359 14.3359 14.3359h37.8887zM401.92 65.5361l26.1123 -26.624
c5.63184 -5.63184 5.63184 -14.3359 0 -19.9678c-2.56055 -2.56055 -6.14453 -4.09668 -9.72852 -4.09668s-7.16797 1.53613 -9.72754 4.09668l-26.624 26.624c-5.63184 5.63184 -5.63184 14.3359 0 19.9678s14.3359 5.63184 19.9678 0zM110.08 318.464l-27.1357 26.624
c-5.63281 5.63184 -5.63281 14.3359 0 19.9678c5.63184 5.63281 14.3359 5.63281 19.9678 0l26.624 -26.624c5.63184 -5.63184 5.63184 -14.3359 0 -19.9678c-2.56055 -2.55957 -6.14453 -4.0957 -9.72852 -4.0957s-7.16797 1.53613 -9.72754 4.0957z" />
    <glyph glyph-name="zoom-out" unicode="&#xf2ce;" 
d="M482.816 18.9443c10.2393 -9.72852 10.2393 -25.6006 0 -35.3281l-19.4561 -19.4561c-9.72852 -9.72852 -26.1123 -9.72852 -35.8408 0l-108.544 108.032c-9.72754 9.72754 -9.72754 26.1113 0 35.8398l0.512695 0.511719l-47.1045 46.5918
c-26.624 -22.0156 -60.9277 -35.3281 -97.792 -35.3281c-84.9922 0 -153.6 68.6084 -153.6 153.601s68.6074 153.6 153.6 153.6s153.601 -69.1201 153.601 -153.6c0 -37.376 -13.8242 -71.6807 -35.8408 -98.3047l47.1045 -46.5918
c9.72754 8.7041 25.5996 8.19238 34.8164 -1.02344zM49.6641 273.408c0 -68.6084 56.3203 -125.44 125.439 -125.44c69.1201 0 125.44 56.3203 125.44 125.44s-56.3203 125.439 -125.44 125.439c-69.1191 0 -125.439 -56.3193 -125.439 -125.439zM219.648 292.352
c7.67969 0 14.3359 -6.14355 14.3359 -14.3359c0 -8.19141 -6.65625 -14.3359 -14.3359 -14.3359h-89.6006c-8.19141 0 -14.3359 6.14453 -14.3359 14.3359c0 8.19238 6.65625 14.3359 14.3359 14.3359h89.6006z" />
    <glyph glyph-name="souncloud-original" unicode="&#xf26b;" 
d="M1649.15 -1049.6c2.04785 0 4.0957 -2.04883 4.0957 -4.09668l9.21582 -57.3438l-9.21582 -56.3203v0v0v0c-0.511719 -2.55957 -2.04785 -4.0957 -4.0957 -4.0957c-2.04883 0 -3.58398 1.53613 -4.09668 4.0957l-7.67969 56.3203l7.67969 57.3438
c0 2.56055 2.04785 4.09668 4.09668 4.09668zM1691.65 -1018.37l11.7754 -93.1836l-11.7754 -91.1367c0 -2.55957 -2.04883 -4.0957 -4.09668 -4.0957s-3.58398 1.53613 -4.0957 4.0957l-10.2402 91.1367l10.2402 93.1836c0 2.56055 2.04785 4.0957 4.0957 4.0957
s3.58398 -1.53516 4.09668 -4.0957zM1852.42 -932.352c4.0957 0 7.16797 -3.58398 7.67969 -7.68066l9.21582 -171.008l-9.21582 -110.592v0c0 -4.0957 -3.58398 -7.67969 -7.67969 -7.67969s-7.67969 3.58398 -7.67969 7.67969l-8.19238 110.592l8.19238 171.008
c0 4.09668 3.58398 7.68066 7.67969 7.68066zM1768.96 -991.744c3.58398 0 6.14355 -3.07227 6.14355 -6.14355l10.2402 -113.152l-10.2402 -109.568c-0.511719 -3.58398 -3.07129 -6.14355 -6.14355 -6.14355s-6.14355 2.55957 -6.14355 6.14355l-9.2168 109.568
l9.2168 113.152c0.511719 3.58398 3.07129 6.14355 6.14355 6.14355zM1936.38 -1229.82c-5.12012 0 -9.21582 4.09668 -9.72754 9.72852l-7.16797 108.544l7.16797 227.84c0.511719 5.63184 4.60742 9.72754 9.72754 9.72754s9.72852 -4.60742 9.72852 -9.72754
l8.19141 -227.84l-8.19141 -108.544c-0.512695 -5.63184 -4.6084 -9.72852 -9.72852 -9.72852zM2109.44 -1230.34c-7.16797 0 -13.3125 6.14355 -13.3125 12.7998l-5.12012 105.984l5.12012 263.168c0.511719 7.67969 6.14453 13.3115 13.3125 13.3115
s13.3115 -6.14355 13.3115 -13.3115l5.63184 -263.168l-5.63184 -105.473v0v0c-0.511719 -7.67969 -6.14355 -13.3115 -13.3115 -13.3115zM2022.4 -1229.82c-6.14453 0 -11.2646 5.12012 -11.2646 11.2646l-6.14355 107.008l6.14355 229.376
c0 6.14355 5.12012 11.2637 11.2646 11.2637c6.14355 0 11.2637 -5.12012 11.2637 -11.2637l6.65625 -229.376l-6.65625 -107.008v0c0 -6.14453 -5.12012 -11.2646 -11.2637 -11.2646zM1810.43 -1228.8c-3.58398 0 -6.65527 3.07227 -7.16797 7.16797l-8.7041 110.592
l8.7041 104.96c0.512695 3.58398 3.58398 6.65625 7.16797 6.65625c4.09668 0 6.65625 -2.56055 7.16797 -6.65625l9.72852 -105.472l-9.72852 -110.592c-0.511719 -3.58398 -3.58398 -6.65625 -7.16797 -6.65625zM1728 -1222.66
c-2.55957 0 -4.6084 2.04785 -5.12012 5.12012l-9.72754 106.496l9.72754 110.592c0 3.07227 2.56055 5.12012 5.12012 5.12012s4.6084 -2.04785 5.12012 -5.12012l10.752 -110.592l-10.752 -106.496c0 -3.07227 -2.56055 -5.12012 -5.12012 -5.12012zM2065.41 -878.08
c7.16797 0 12.2881 -5.63184 12.2881 -12.2881l6.14355 -221.184l-6.14355 -106.496v0c0 -7.16797 -5.63184 -12.2881 -12.2881 -12.2881s-12.2881 5.63184 -12.2881 12.2881l-5.63184 106.496l5.63184 221.184c0 7.16797 5.63184 12.2881 12.2881 12.2881zM1894.4 -1229.82
c-4.6084 0 -8.7041 3.58398 -8.7041 8.7041l-7.68066 110.08l7.68066 210.432c0 5.12012 4.0957 8.7041 8.7041 8.7041c4.60742 0 8.70312 -4.0957 8.70312 -8.7041l8.7041 -210.432l-8.7041 -110.08c0 -5.12012 -4.0957 -8.7041 -8.70312 -8.7041zM1989.63 -1219.58v0
c0 -5.63184 -4.60742 -10.2402 -10.2402 -10.2402c-5.63184 0 -10.2393 4.6084 -10.2393 10.2402l-6.65625 108.032l6.65625 235.52c0 5.63184 4.60742 10.2402 10.2393 10.2402c5.63281 0 10.2402 -4.6084 10.2402 -10.2402l7.16797 -235.52l-7.16797 -108.032v0z
M2545.66 -975.872c70.1436 0 127.488 -56.832 128 -126.464c0 -70.6562 -57.3438 -127.488 -127.488 -127.488h-353.279c-7.68066 0.512695 -13.8242 7.16797 -13.8242 14.8486v403.968c0 7.16797 2.55957 11.2637 12.2881 14.8477
c24.5752 9.72852 52.7354 15.3604 81.4072 15.3604c117.248 0 213.505 -90.1123 223.744 -204.8c14.8486 6.14355 31.7441 9.72754 49.1523 9.72754zM2152.96 -810.496c7.67969 0 13.8242 -6.65625 13.8242 -13.8242l6.14355 -286.72l-6.14355 -103.936v0
c0 -7.68066 -6.14453 -13.8242 -13.8242 -13.8242s-13.8242 6.14355 -13.8242 13.8242l-5.63184 103.936l5.63184 286.72c0 7.68066 6.14453 13.8242 13.8242 13.8242zM1740.29 -1311.23c15.3604 -3.58398 31.7441 -8.70312 32.2559 -29.1836
c0 -17.9199 -11.2637 -30.208 -37.376 -30.208c-15.8721 0 -29.6963 6.65625 -36.8643 17.4082l13.8242 12.2881c6.65625 -7.68066 14.8477 -10.752 24.0645 -10.752c11.2637 0 16.3838 3.07129 16.3838 10.2393c0 6.14453 -3.07227 8.7041 -20.9922 12.8008
c-17.4082 4.0957 -29.6963 9.21582 -29.6963 28.1592c0 16.8965 14.8486 27.6484 33.792 27.6484c14.8486 0 25.6006 -5.63184 34.8164 -14.8477l-13.8242 -13.3125c-6.14355 6.14453 -12.7998 9.72852 -21.5039 9.72852c-10.2402 0 -13.8242 -4.6084 -13.8242 -8.7041
c0 -5.63184 4.09668 -7.68066 18.9443 -11.2646zM1827.84 -1272.83c26.1123 0 41.4717 -20.4795 41.4717 -49.1523c0 -29.1836 -15.3594 -49.1514 -41.4717 -49.1514s-41.4717 19.9678 -41.4717 49.1514c0 29.1846 15.3594 49.1523 41.4717 49.1523zM1827.84 -1352.19
c15.3604 0 21.5039 13.3125 21.5039 30.208c0 16.8965 -6.14355 30.208 -21.5039 30.208c-15.3594 0 -21.5039 -13.3115 -21.5039 -30.208c0 -16.8955 6.14453 -30.208 21.5039 -30.208zM1945.6 -1328.13v54.2715h18.9443v-53.2471
c0 -27.6484 -14.3359 -43.5205 -38.4004 -43.5205c-23.04 0 -38.3994 15.3604 -38.3994 43.0078v53.248h18.9443v-53.248c0 -15.3594 7.16797 -25.0879 19.4551 -25.0879c11.7764 0 19.4561 9.21582 19.4561 24.5762zM2046.98 -1314.82h-0.511719v40.96h18.9443v-95.2314
h-16.8965l-34.8154 51.7119c-2.56055 3.58398 -5.63184 8.19238 -6.65625 10.752c0 -3.58398 0.511719 -15.8721 0.511719 -20.9922v-41.9834h-18.9434v94.7197h18.4316l33.792 -50.1758c2.55957 -3.58398 5.63184 -8.19238 6.65625 -10.752
c0 3.58398 -0.512695 15.8721 -0.512695 20.9912zM2119.68 -1274.37c27.1367 0 47.1045 -12.7998 47.1045 -47.6162c0 -33.2793 -24.0645 -47.6152 -48.6406 -47.6152h-28.1592v95.2314h29.6953zM2118.14 -1351.17c19.9688 0 29.1846 11.7764 29.1846 29.1836
c0 19.4561 -8.19238 29.1846 -28.1602 29.1846h-10.2402v-58.3682h9.21582zM2225.66 -1291.78c-14.3359 0 -22.5283 -12.7998 -22.0156 -30.208c0 -17.4072 8.19141 -30.208 22.5273 -30.208c8.19238 0 13.3125 4.09668 18.4326 12.2881l15.8721 -9.72754
c-6.65625 -13.3125 -17.9209 -21.5039 -35.3281 -21.5039c-24.5762 0 -41.4727 18.9434 -41.4727 49.1514c0 29.1846 17.4082 49.1523 41.9844 49.1523c17.9199 0 28.6719 -8.7041 34.8164 -20.9922l-17.4082 -8.19141c-3.58398 6.65527 -8.7041 10.2393 -17.4082 10.2393z
M2296.32 -1274.37h0.511719v-76.2881h37.8877v-18.9434h-57.3438v95.2314h18.9443zM2384.38 -1272.83c26.1123 0 41.4727 -20.4795 41.4727 -49.1523c0 -29.1836 -15.3604 -49.1514 -41.4727 -49.1514c-26.1113 0 -41.4717 19.9678 -41.4717 49.1514
c0 29.1846 15.3604 49.1523 41.4717 49.1523zM2384.38 -1352.19c15.3604 0 22.0166 13.3125 21.5039 30.208c0 16.8965 -6.14355 30.208 -21.5039 30.208c-15.3594 0 -21.5039 -13.3115 -21.5039 -30.208c0 -16.8955 6.14453 -30.208 21.5039 -30.208zM2502.66 -1328.13
v54.2715h18.9434v-53.2471c0 -27.6484 -14.3359 -43.5205 -38.3994 -43.5205c-23.04 0 -38.4004 15.3604 -38.4004 43.0078v53.248h18.9443v-53.248c0 -15.3594 7.16797 -25.0879 19.4561 -25.0879c11.7754 0 19.4561 9.21582 19.4561 24.5762zM2574.85 -1274.37
c27.1367 0 47.1045 -12.7998 47.1045 -47.6162c0 -33.2793 -24.0645 -47.6152 -48.6406 -47.6152h-28.1592v95.2314h29.6953zM2573.31 -1351.17c19.9688 0 29.1846 11.7764 29.1846 29.1836c0 19.4561 -8.19238 29.1846 -28.1602 29.1846h-10.2402v-58.3682h9.21582z
M18.4316 204.288c1.02441 0 1.53613 -1.02441 2.04883 -2.04785l4.0957 -27.1367l-4.0957 -26.623v0v0v0c-0.512695 -1.02441 -1.02441 -2.04883 -2.04883 -2.04883c-1.02344 0 -2.04785 1.02441 -2.04785 2.04883l-3.58398 26.623l3.58398 27.1367
c0 1.02344 1.02441 2.04785 2.04785 2.04785zM38.4004 219.136l5.63184 -43.5195l-5.63184 -42.4961c0 -1.02441 -1.02441 -2.04785 -2.04883 -2.04785c-1.02344 0 -2.04785 1.02344 -2.04785 2.04785l-4.60742 42.4961l4.60742 43.5195
c0 1.02441 1.02441 2.04785 2.04785 2.04785c1.02441 0 2.04883 -1.02344 2.04883 -2.04785zM113.664 259.584c2.04785 0 3.58398 -2.04785 3.58398 -3.58398l4.0957 -80.3838l-4.0957 -51.7119v0c0 -2.04785 -1.53613 -3.58398 -3.58398 -3.58398
s-3.58398 1.53613 -3.58398 3.58398l-3.58398 51.7119l3.58398 80.3838c0 2.04785 1.53613 3.58398 3.58398 3.58398zM74.752 231.424c1.53613 0 2.55957 -1.02344 3.07227 -2.55957l5.12012 -53.248l-5.12012 -51.7119
c-0.512695 -1.53613 -1.53613 -2.56055 -3.07227 -2.56055s-3.07227 1.02441 -3.07227 2.56055l-4.0957 51.7119l4.0957 53.248c0.512695 1.53613 1.53613 2.55957 3.07227 2.55957zM153.088 119.808c-2.04785 0 -4.0957 2.04883 -4.60742 4.6084l-3.07227 51.2002
l3.07227 107.008c0 2.55957 2.04785 4.6084 4.60742 4.6084c2.56055 0 4.6084 -2.04883 4.6084 -4.6084l3.58398 -107.008l-3.58398 -51.2002c0 -2.55957 -2.04785 -4.6084 -4.6084 -4.6084zM234.496 119.296c-3.58398 0 -6.14453 3.07227 -6.14453 6.65625
l-2.55957 49.6641l2.55957 123.392c0 3.58398 2.56055 6.14453 6.14453 6.14453c3.07227 0 6.14355 -2.56055 6.14355 -6.14453l2.56055 -123.904l-2.56055 -49.6631v0v0c0 -3.58398 -2.55957 -6.14453 -6.14355 -6.14453zM193.536 119.808
c-3.07227 0 -5.12012 2.04883 -5.12012 5.12012l-3.07227 50.1758l3.07227 108.032c0 2.56055 2.04785 5.12012 5.12012 5.12012c2.55957 0 5.12012 -2.04785 5.12012 -5.12012l3.07129 -108.032l-3.07129 -50.1758v0c0 -2.55957 -2.04785 -5.12012 -5.12012 -5.12012z
M94.208 120.32c-2.04785 0 -3.07227 1.02344 -3.07227 3.58398l-4.0957 51.7119l4.0957 49.1514c0 1.53613 1.53613 3.07227 3.07227 3.07227s3.07227 -1.02344 3.07227 -3.07227l4.60742 -49.6641l-4.60742 -51.7119c0 -1.53516 -1.53613 -3.07129 -3.07227 -3.07129z
M55.2959 122.88c-1.02344 0 -2.04785 1.02441 -2.55957 2.56055l-4.6084 50.1758l4.6084 51.7119c0 1.53613 1.02344 2.55957 2.55957 2.55957s2.56055 -1.02344 2.56055 -2.55957l5.11914 -51.7119l-5.11914 -50.1758
c-0.512695 -1.53613 -1.53613 -2.56055 -2.56055 -2.56055zM214.016 284.672c3.07227 0 5.63281 -2.55957 5.63281 -5.63184l3.07129 -103.937l-3.07129 -50.1758v0c0 -3.07129 -2.56055 -5.63184 -5.63281 -5.63184c-3.07129 0 -5.63184 2.56055 -5.63184 5.63184
l-2.55957 50.1758l2.55957 103.937c0 3.07227 2.56055 5.63184 5.63184 5.63184zM133.632 119.808c-2.55957 0 -4.0957 1.53613 -4.0957 3.58398l-3.58398 51.7119l3.58398 98.8164c0 2.56055 2.04785 4.0957 4.0957 4.0957s4.0957 -2.04785 4.0957 -4.0957
l4.09668 -98.3037l-4.09668 -51.7119c0 -2.56055 -2.04785 -4.09668 -4.0957 -4.09668zM178.176 124.416v0c0 -2.55957 -2.04785 -4.6084 -5.12012 -5.12012c-3.07129 0 -5.12012 2.56055 -5.12012 5.12012l-3.07129 50.6875l3.07129 110.593
c0.512695 3.07129 2.56055 5.12012 5.12012 5.12012c3.07227 0 5.12012 -2.56055 5.12012 -5.12012l3.58398 -110.593l-3.58398 -50.6875v0zM439.296 239.104c33.2803 0 59.9043 -26.623 60.416 -59.9033c0 -33.2803 -26.624 -59.9043 -59.9043 -59.9043h-165.888
c-3.58398 0.511719 -6.65625 3.58398 -6.65625 7.16797v189.952c0 3.58398 1.02441 5.63184 5.63281 7.16797c11.7754 4.6084 25.0879 7.16797 38.3994 7.16797c54.7842 0 100.353 -42.4961 104.96 -96.2559c7.16797 3.07227 14.8477 4.60742 23.04 4.60742z
M254.976 316.416c3.58398 0 6.65625 -2.55957 6.65625 -6.65625l3.07227 -134.656l-3.07227 -49.1514v0c0 -3.58398 -3.07227 -6.65625 -6.65625 -6.65625s-6.65527 3.07227 -6.65527 6.65625l-2.56055 49.1514l2.56055 134.656c0 3.58398 3.07129 6.65625 6.65527 6.65625z
M60.9277 81.4082c7.16797 -1.53613 15.3604 -4.09668 14.8486 -13.8242c0 -8.7041 -5.12012 -14.3359 -17.4082 -14.3359c-7.67969 0 -13.8242 3.07227 -17.4082 8.19238l6.14355 5.63184c3.07227 -3.58398 7.16895 -5.12012 11.2646 -5.12012
c5.12012 0 7.67969 1.02344 7.67969 4.60742c0 3.07227 -1.53613 4.09668 -9.72754 6.14453c-8.19238 2.04785 -13.8242 4.60742 -13.8242 13.3115c0 8.19238 7.16797 13.3125 15.8721 13.3125c7.16797 0 12.2881 -2.56055 16.3838 -7.16797l-6.65625 -6.14453
c-3.07129 3.07227 -6.14355 4.6084 -10.2393 4.6084c-4.6084 0 -6.14453 -2.04785 -6.14453 -4.0957c0 -2.56055 2.04785 -3.58398 9.21582 -5.12012zM102.4 99.3281c11.7754 0 19.4561 -9.21582 19.4561 -23.04s-7.16797 -23.04 -19.4561 -23.04
s-19.4561 9.21582 -19.4561 23.04s7.16797 23.04 19.4561 23.04zM102.4 62.4639c7.16797 0 10.2393 6.14453 10.2393 14.3359c0 8.19238 -3.07129 14.3359 -10.2393 14.3359s-10.2402 -6.14355 -10.2402 -14.3359c0 -8.19141 3.07227 -14.3359 10.2402 -14.3359z
M157.696 73.7275v25.0889h8.7041v-25.0889c0 -12.7998 -6.65625 -20.4795 -17.9199 -20.4795c-10.7529 0 -17.9209 7.67969 -17.9209 20.4795v25.0889h8.7041v-25.0889c0 -7.16797 3.58398 -11.7754 9.2168 -11.7754c5.63184 0 9.21582 4.60742 9.21582 11.7754z
M205.312 79.8721v18.4316h8.7041v-44.5439h-8.19141l-16.3838 24.5762c-1.02441 1.53613 -2.56055 4.0957 -3.07227 5.12012v-9.72852v-19.4551h-8.7041v44.5439h8.7041l15.8721 -23.5527c1.02344 -1.53613 2.55957 -4.0957 3.07129 -5.12012v9.72852zM239.104 98.8164
c12.8008 0 22.5283 -6.14453 22.5283 -22.0166s-11.7754 -22.5273 -23.04 -22.5273h-13.3115v44.5439h13.8232zM238.592 62.9756c9.21582 0 13.8242 5.12012 13.3125 13.3125c0 9.21582 -4.09668 13.8242 -13.3125 13.8242h-4.60742v-27.1367h4.60742zM289.28 90.624
c-6.65625 0 -10.752 -6.14355 -11.2646 -13.8242c0 -8.19141 4.09668 -14.3359 10.752 -14.3359c4.09668 0 6.14453 1.53613 8.7041 5.63184l7.68066 -4.60742c-3.07227 -6.65625 -8.19238 -10.2402 -16.3848 -10.2402c-11.7754 0 -19.4561 8.7041 -19.4561 23.04
c0 13.8242 8.19238 23.04 19.9688 23.04c8.7041 0 13.8232 -4.0957 16.3838 -9.72852l-8.19238 -3.58398c-1.53613 3.07227 -4.0957 4.6084 -8.19141 4.6084zM322.048 98.8164v-35.8408h17.9199v-8.70312h-26.624v44.5439h8.7041zM363.52 99.3281
c12.2881 0 19.4561 -9.21582 19.4561 -23.04s-7.16797 -23.04 -19.4561 -23.04c-12.2871 0 -19.4551 9.21582 -19.4551 23.04s7.16797 23.04 19.4551 23.04zM363.52 62.4639c7.16895 0 10.2402 6.14453 10.2402 14.3359c0 8.19238 -3.07129 14.3359 -10.2402 14.3359
c-7.16797 0 -10.2393 -6.14355 -10.2393 -14.3359c0 -8.19141 3.07129 -14.3359 10.2393 -14.3359zM419.328 73.7275v25.0889h8.7041v-25.0889c0 -12.7998 -6.65625 -20.4795 -17.9199 -20.4795c-10.752 0 -17.9199 7.67969 -17.9199 20.4795v25.0889h8.7041v-25.0889
c0 -7.16797 3.58398 -11.7754 9.21582 -11.7754s9.21582 4.60742 9.21582 11.7754zM453.12 98.8164c12.7998 0 22.0156 -6.14453 22.5283 -22.0166c0 -15.8721 -11.7764 -22.5273 -23.04 -22.5273h-13.3125v44.5439h13.8242zM452.608 62.9756
c9.21582 0 13.3115 5.12012 13.3115 13.3125c0 9.21582 -4.0957 13.8242 -13.3115 13.8242h-4.6084v-27.1367h4.6084z" />
    <glyph glyph-name="clipboard" unicode="&#xf159;" 
d="M403.968 380.416c12.2881 0 22.0166 -9.21582 21.5039 -22.5283v-394.239c0 -12.2881 -9.72754 -22.0166 -22.0156 -22.0166h-295.424c-12.7998 0 -22.0166 9.72852 -22.0166 22.0166v394.239c0 12.8008 9.72852 22.0166 22.0166 22.0166h53.248v15.3594
c0 8.7041 7.16797 15.8721 15.8721 15.8721h60.9277v12.7998c0 9.72852 8.19238 17.9209 17.9199 17.9209s17.9199 -8.19238 17.9199 -17.9209v-12.2871h61.9521c8.7041 0 15.8721 -7.16797 15.8721 -15.8721v-15.3604h52.2236zM397.824 -29.6963h-0.512695v381.952
h-46.0791v-9.72754c0 -8.7041 -7.16797 -15.8721 -15.8721 -15.8721h-158.721c-8.7041 0 -15.8721 7.16797 -15.8721 15.8721v9.72754h-46.5918v-381.952h283.648z" />
    <glyph glyph-name="suspect" unicode="&#xf285;" 
d="M256 441.344c137.728 0 249.856 -111.616 249.856 -249.344s-112.129 -249.856 -249.856 -249.856s-249.344 112.129 -249.344 249.856s111.616 249.344 249.344 249.344zM256 -29.6963c121.856 0 221.696 99.8398 221.696 221.185
c0 122.368 -99.8398 221.695 -221.696 221.695s-221.184 -99.3271 -221.184 -221.184s99.3271 -221.696 221.184 -221.696zM356.352 135.68c7.68066 0 13.8242 -6.14355 13.8242 -14.3359c0 -8.19141 -6.65625 -14.3359 -14.3359 -14.3359h-200.191
c-8.19238 0 -14.3369 6.14453 -14.3369 14.3359c0 8.19238 6.65625 14.3359 14.3369 14.3359h200.703zM207.872 250.88v-0.511719h-62.4639c-8.19238 0 -14.3359 6.14355 -14.3359 14.3359s6.65527 14.3359 14.3359 14.3359h62.4639
c7.67969 0 14.3359 -5.63184 14.3359 -13.8242c0 -8.19141 -6.65625 -14.3359 -14.3359 -14.3359zM366.592 279.04c7.68066 0 13.8242 -6.14355 13.8242 -14.3359s-6.65625 -14.3359 -14.3359 -14.3359h-56.832c-8.19238 0 -14.3359 6.14355 -14.3359 14.3359
s6.65625 14.3359 14.3359 14.3359h57.3438z" />
    <glyph glyph-name="spinner-solid" unicode="&#xf270;" 
d="M465.408 150.016c1.02344 6.65625 6.65625 11.2646 13.3115 10.752v0c8.7041 0 15.3604 -8.19141 13.8242 -16.8955c-23.04 -115.2 -125.952 -197.632 -247.808 -191.488c-117.761 6.14453 -214.528 99.3281 -225.28 217.088
c-12.2881 141.824 99.3281 261.632 238.592 261.632c110.592 0 205.824 -75.7754 232.448 -180.735c2.04785 -9.21582 -4.6084 -17.9199 -13.8242 -17.9199v0c-6.65625 0 -12.2881 4.60742 -13.8242 10.752c-23.04 92.6719 -107.52 159.744 -204.8 159.744
c-120.32 0 -217.088 -100.864 -210.432 -222.208c6.14355 -112.641 101.888 -201.729 214.527 -199.681c100.353 1.53613 183.809 72.1924 203.265 168.96z" />
    <glyph glyph-name="reply" unicode="&#xf23e;" 
d="M463.36 2.55957h-1.53613c-18.9443 0 -34.8164 16.3848 -34.8164 35.8408c0 10.752 -51.2002 47.1035 -163.328 54.2715v-34.3037c0 -29.6963 -24.0635 -53.7598 -53.7598 -53.7598c-13.3115 0 -25.0879 4.60742 -35.3281 13.3115l-1.02344 0.511719
c-1.02441 1.02441 -5.12012 4.6084 -11.7764 10.752c-30.208 28.1602 -109.568 101.376 -135.68 129.024c-5.12012 5.12012 -12.8008 14.3359 -12.8008 28.1602v6.65625c0 13.8232 4.6084 26.1113 13.8242 35.3271c17.9199 17.4082 59.9043 56.832 93.6963 88.5762
c24.5762 23.04 49.6641 46.5918 52.7363 49.6641l1.53516 1.53613c10.2402 8.7041 22.0166 13.3125 35.3281 13.3125c29.6963 0 53.7607 -24.0645 53.7607 -53.7607v-37.8877c68.0957 -8.19238 130.56 -40.96 176.128 -92.1602
c36.8633 -43.0078 57.3438 -95.7441 58.3682 -152.576v-2.04785l-0.512695 -2.04785c-0.511719 -1.53613 -0.511719 -2.55957 -0.511719 -3.07227v0c0 -18.4316 -14.8477 -34.3037 -33.792 -35.8398zM235.008 122.368l14.8486 -0.511719
c115.199 -4.09668 205.312 -40.96 205.312 -82.9443c0 -4.0957 3.58398 -7.67969 6.65625 -7.67969h0.511719c4.6084 0.511719 7.67969 4.60742 7.67969 7.67969c0 2.04785 0 4.0957 1.02441 8.19141c-1.53613 49.6641 -18.9443 95.2324 -51.2002 132.608
c-44.5439 48.6396 -104.96 78.8477 -171.008 83.4561l-12.7998 1.02441v63.4873c0 14.3359 -11.2646 25.6006 -25.6006 25.6006c-6.14355 0 -11.7754 -2.04785 -16.3838 -6.14453c-4.0957 -4.60742 -16.8955 -16.3838 -53.7598 -51.2002
c-33.792 -31.2314 -75.2637 -70.6553 -92.6719 -88.0635c-3.58398 -3.58398 -5.63184 -8.7041 -5.63184 -15.3604v-6.65527c0 -2.04883 0.511719 -4.6084 4.60742 -8.7041c25.6006 -27.6484 104.448 -99.8408 134.145 -127.488
c8.19141 -7.16797 10.752 -10.2402 12.2881 -11.2637c5.11914 -4.09668 10.2393 -6.14453 16.8955 -6.14453c14.3359 0 25.5996 11.2637 25.5996 25.6006v64.5117h-0.511719z" />
    <glyph glyph-name="lineicons" unicode="&#xf1e6;" 
d="M358.912 159.232c-32.2559 0 -61.9521 15.3594 -80.8965 40.96l-24.5752 31.7432l-26.624 -34.3037c-19.4561 -24.5762 -48.1279 -38.9121 -79.3604 -38.9121c-55.2959 0 -99.8398 44.5439 -99.8398 99.8398c0 55.2969 45.0557 99.8408 99.8398 99.8408
c32.2559 0 61.9521 -15.3604 80.8955 -41.4727l25.0889 -31.7441l22.5273 29.6963c7.16797 8.7041 16.8965 19.9678 29.6963 28.6719c15.8721 10.2402 33.792 15.3604 53.248 15.3604c55.2959 0 99.8398 -44.5439 99.8398 -99.8398s-45.0557 -99.8398 -99.8398 -99.8398z
M202.24 217.6l31.2314 41.9844l-30.208 39.4238c-12.7998 17.9199 -33.2793 28.6719 -55.2959 28.6719c-37.8877 0 -68.6074 -30.7197 -68.6074 -68.6074c0 -37.8887 30.7197 -68.6084 68.6074 -68.6084c21.5039 0 41.4727 10.2402 54.2725 27.1357zM300.544 294.912
l-27.6475 -36.8643l28.1592 -38.3994l1.53613 -1.02441c13.3125 -17.9199 34.3047 -28.6719 56.3203 -28.6719c37.8877 0 68.6074 30.7197 68.6074 68.6074c0 37.8887 -31.2314 68.6084 -68.6074 68.6084c-13.3125 0 -26.1123 -4.0957 -36.8643 -10.752
c-9.21582 -5.63184 -15.8721 -14.3359 -21.5039 -21.5039zM52.2236 43.5195c6.65625 0 10.2402 -2.55957 8.7041 -8.19141c0 -2.56055 -0.511719 -4.6084 -2.04785 -6.14453c-1.53613 -1.53516 -3.58398 -2.04785 -7.16797 -2.04785h-37.376
c-3.07227 0 -5.63184 0.512695 -7.16797 2.04785c-1.53613 1.53613 -2.04785 3.58398 -2.04785 7.16797v60.416c0 3.07227 1.02344 5.63281 2.55957 7.16797c1.53613 2.04883 3.58398 3.07227 7.16797 3.07227c4.09668 0 5.63281 -1.02344 8.7041 -3.07227
c2.04785 -1.53516 3.07227 -4.0957 3.07227 -7.16797v-53.248h25.5996zM79.3604 111.104c3.58398 0 6.14355 -1.02344 7.67969 -3.07129c2.04785 -1.53613 3.07227 -3.58398 3.07227 -6.65625s-1.02441 -5.63184 -3.07227 -7.16797
c-1.53613 -2.04785 -4.0957 -3.07227 -7.67969 -3.07227c-3.07227 0 -5.63281 1.53613 -7.68066 3.07227c-2.04785 2.04785 -3.07129 4.6084 -3.07129 7.16797s1.02344 5.12012 3.07129 6.65625c1.53613 2.04785 4.09668 3.07129 7.68066 3.07129zM86.0156 81.4082
c2.56055 -1.02441 3.07227 -3.58398 3.07227 -6.65625v-38.9121c0 -2.55957 -1.53613 -5.12012 -3.07227 -6.65625c-2.04785 -1.53516 -4.60742 -2.04785 -7.16797 -2.04785c-2.55957 0 -5.63184 0.512695 -7.16797 2.04785
c-2.04785 1.02441 -3.07129 3.58398 -3.07129 6.65625v38.9121c0 2.55957 1.53516 5.12012 3.07129 6.65625c2.04785 1.53613 4.6084 2.04785 7.16797 2.04785c2.56055 0 5.12012 -1.02441 7.16797 -2.04785zM138.752 83.9678c6.14453 0 11.2637 -2.04785 15.3604 -7.16797
c3.58398 -3.58398 5.12012 -10.2402 5.12012 -17.9199v-23.5518c0 -2.56055 -1.53613 -5.12012 -3.07227 -6.65625s-4.6084 -2.04785 -7.16797 -2.04785c-2.56055 0 -5.63184 0.511719 -7.16797 2.04785c-2.04785 1.53613 -3.07227 3.58398 -3.07227 6.65625v23.5518
c0 3.07227 -0.511719 5.63184 -1.53613 7.16797c-1.02344 1.53613 -3.07227 2.04785 -5.12012 2.04785c-3.07129 0 -5.63184 -1.53613 -7.16797 -3.07129c-2.04785 -2.04883 -3.07129 -4.09668 -3.07129 -7.68066v-22.5273c0 -2.56055 -1.53613 -5.12012 -3.07227 -6.65625
s-4.0957 -2.04785 -7.16797 -2.04785c-2.56055 0 -5.12012 0.511719 -7.16797 2.04785s-3.07227 3.58398 -3.07227 6.65625v38.9111c0 2.56055 1.53613 4.6084 3.07227 6.65625s4.0957 3.07227 7.16797 3.07227c2.55957 0 5.12012 -0.511719 6.65625 -2.04785
c2.55957 -1.53613 3.07129 -3.07227 3.07129 -6.14453c1.53613 2.56055 4.09668 5.12012 7.16797 6.65625c3.07227 1.53613 6.14453 2.04785 10.2402 2.04785zM219.136 52.2236c0 -1.02344 -1.02344 -1.02344 -3.07129 -1.53516h-28.6729
c0.512695 -3.58496 2.04883 -6.14453 3.58398 -7.68066c1.53613 -1.53613 4.09668 -2.04785 7.68066 -2.04785c1.53613 0 3.58398 0 5.12012 0.511719c1.02344 0.512695 3.58398 1.02441 5.12012 1.53613c1.02344 0.511719 2.55957 0.511719 2.55957 1.53613
c1.53613 0.511719 2.04785 0.511719 3.07227 0.511719c1.53613 0 2.55957 -2.04785 3.58398 -3.07129c1.02344 -1.02441 1.53613 -3.07227 1.53613 -5.12012c0 -2.56055 -1.53613 -5.12012 -4.6084 -6.65625c-2.55957 -2.04785 -5.63184 -2.55957 -9.21582 -3.58398
c-3.58398 -0.511719 -6.65625 -1.02441 -9.72852 -1.02441c-6.14355 0 -11.7754 1.02441 -16.3838 3.58398c-4.6084 2.56055 -7.67969 5.63281 -10.752 10.2402c-3.07227 4.6084 -4.0957 9.72852 -4.0957 15.3604s1.53613 10.752 3.58398 15.3594
c3.07129 4.6084 5.63184 8.19238 10.2402 10.2402c4.60742 3.07227 9.72754 4.09668 14.8477 4.09668s9.72754 -1.53613 13.8242 -3.58398c4.0957 -2.56055 7.16797 -5.12012 9.21582 -9.72852c2.55957 -4.6084 3.58398 -9.21582 3.58398 -14.8477
c0 -2.04785 -0.511719 -3.07227 -1.02441 -4.09668zM186.368 59.9043h17.9199c-1.02441 6.65527 -3.58398 10.2393 -8.7041 10.2393c-2.04785 0 -4.6084 -1.53516 -6.14355 -3.07129c-2.04883 -1.53613 -2.56055 -3.58398 -3.07227 -7.16797zM241.664 107.008
c3.07227 0 5.63184 -0.511719 7.67969 -3.07227c2.04785 -1.53516 3.07227 -4.0957 3.07227 -7.16797v-60.416c0 -2.55957 -1.02441 -5.63184 -3.07227 -7.16797c-2.04785 -2.04785 -4.0957 -3.07129 -7.67969 -3.07129c-2.56055 0 -5.12012 1.53613 -7.16797 3.07129
c-2.04785 1.53613 -3.07227 3.58398 -3.07227 7.16797v60.416c0 2.56055 1.53613 5.63281 3.07227 7.16797c1.53613 2.04883 3.58398 3.07227 7.16797 3.07227zM294.912 68.6084c-7.67969 0 -11.2637 -4.6084 -13.3125 -13.8242
c0 -4.6084 1.53613 -8.19238 3.07227 -10.2402c2.56055 -2.55957 5.12012 -3.58398 8.7041 -3.58398c1.53613 0 2.55957 0 3.58398 0.511719c1.02441 0.512695 3.07227 1.02441 4.0957 1.53613c2.04785 0.511719 3.07227 1.02441 4.09668 1.53613
c1.53613 0.511719 2.55957 0.511719 3.58398 0.511719c2.55957 0 3.58398 -0.511719 4.60742 -2.04785c1.02441 -1.02344 1.53613 -3.58398 1.53613 -5.63184s-0.511719 -3.07227 -1.02344 -4.0957c-0.512695 -1.53613 -1.02441 -2.56055 -2.04883 -3.07227
c-5.63184 -3.07227 -12.2881 -4.6084 -19.4561 -4.6084c-9.21582 0 -16.3838 2.56055 -21.5039 7.68066c-4.60742 5.12012 -7.67969 11.7754 -7.67969 20.9922c0 5.63184 2.04785 10.752 4.0957 15.3594c2.04785 4.6084 6.14453 8.19238 10.752 10.2402
c4.6084 2.55957 9.72852 3.58398 15.8721 3.58398c3.58398 0 6.14453 -0.511719 9.72852 -1.02441c3.58398 -0.511719 6.65625 -2.04785 8.7041 -3.58398c2.55957 -1.53613 3.58398 -3.58398 3.58398 -6.65527c0 -2.04883 -0.512695 -4.09668 -1.53613 -5.63281
c-1.02441 -1.53516 -3.07227 -2.04785 -4.6084 -2.04785s-2.04785 0 -3.58398 0.512695c-1.53613 0.511719 -2.55957 1.02344 -3.58398 1.53516c-2.04785 0.512695 -3.07227 1.02441 -4.0957 1.53613c-1.53613 0.512695 -2.56055 0.512695 -3.58398 0.512695z
M366.592 80.3838c5.12012 -2.04785 7.68066 -5.63184 10.752 -10.2402c3.07227 -4.60742 4.09668 -9.72754 4.09668 -15.3594s-1.02441 -10.752 -4.09668 -15.3604c-3.07129 -4.60742 -6.14355 -8.19141 -10.752 -10.2402
c-5.12012 -2.55957 -10.2402 -3.58398 -16.3838 -3.58398s-11.7764 1.53613 -16.3838 3.58398c-4.6084 2.56055 -8.7041 5.63281 -10.752 10.2402c-3.07227 4.6084 -4.09668 9.72852 -4.09668 15.3604s2.04883 10.752 4.09668 15.3594
c3.07129 4.6084 6.14355 8.19238 10.752 10.2402c5.12012 2.56055 10.2402 3.58398 16.3838 3.58398s11.7764 -1.53613 16.3838 -3.58398zM350.72 40.96c7.16797 0 10.2402 4.6084 10.752 13.8242c0 9.72754 -3.07129 14.3359 -10.752 14.3359
c-7.67969 0 -10.752 -4.0957 -10.752 -13.8242c0 -9.72754 3.58398 -14.3359 10.752 -14.3359zM428.032 83.9678c6.14355 0 11.2637 -2.04785 15.3594 -7.16797c3.58398 -3.58398 5.12012 -10.2402 5.12012 -17.9199v-23.5518
c0 -2.56055 -1.53613 -5.12012 -3.07129 -6.65625c-1.53613 -1.53613 -4.6084 -2.04785 -7.16797 -2.04785c-2.56055 0 -5.12012 0.511719 -7.16895 2.04785c-2.04785 1.53613 -3.07129 3.58398 -3.07129 6.65625v23.5518c0 3.07227 -0.512695 5.63184 -1.53613 7.16797
c-1.02441 1.53613 -3.07227 2.04785 -5.12012 2.04785c-3.07227 0 -5.63184 -1.53613 -7.16797 -3.07129c-2.04785 -2.04883 -3.07227 -4.09668 -3.07227 -7.68066v-22.5273c0 -2.56055 -1.53613 -5.12012 -3.07129 -6.65625
c-1.53613 -1.53613 -4.6084 -2.04785 -7.16797 -2.04785c-2.56055 0 -5.12012 0.511719 -7.16895 2.04785c-2.04785 1.53613 -3.07129 3.58398 -3.07129 6.65625v38.9111c0 2.56055 1.53613 4.6084 3.07129 6.65625c1.53613 2.04785 4.6084 3.07227 7.16895 3.07227
c2.55957 0 5.11914 -0.511719 6.65527 -2.04785c2.04785 -1.53613 3.07227 -3.07227 3.07227 -6.14453c1.53613 2.56055 4.0957 5.12012 7.16797 6.65625s6.14355 2.04785 10.2402 2.04785zM501.76 54.7842c3.07227 -2.04785 4.6084 -6.14453 4.09668 -11.2646
c0 -5.11914 -1.53613 -9.21582 -6.65625 -12.7998s-11.2646 -5.12012 -18.9443 -5.12012c-5.12012 0 -9.21582 0.512695 -12.7998 1.02441s-6.14453 2.04785 -9.21582 3.58398c-0.512695 1.02441 -1.53613 2.04785 -2.04785 3.07227
c-0.512695 1.53613 -1.02441 3.07129 -1.02441 4.60742c0 2.04785 0.511719 4.09668 1.53613 5.12012c1.02344 1.53613 2.55957 2.04785 4.0957 2.04785s3.07227 -1.02344 3.58398 -1.02344c0.512695 0 2.04785 -0.512695 3.58398 -1.02441
c2.04785 -0.511719 4.09668 -1.02344 6.14453 -1.53613c2.04785 -0.511719 4.0957 -0.511719 7.16797 -0.511719c2.04785 0 4.0957 0.511719 5.12012 1.02441c1.02344 0.511719 1.53516 1.02344 1.53516 2.04785c0 0.511719 -0.511719 1.02344 -1.02344 1.53613
c-0.511719 0 -2.04785 0.511719 -3.58398 1.02344s-3.58398 1.02441 -7.67969 1.53613c-7.16797 1.02441 -11.7764 3.07227 -14.8486 5.63184c-3.07227 2.56055 -4.60742 6.65625 -4.60742 11.2646c0 4.0957 1.53516 6.65527 3.58398 9.72754
c2.55957 2.55957 5.12012 5.12012 9.21582 6.65625c3.07227 1.53613 7.67969 2.04785 12.2881 2.04785c3.58398 0 6.65527 -0.511719 10.2393 -1.02441c3.58398 -0.511719 6.65625 -2.04785 8.7041 -3.58398c2.56055 -1.53613 3.58398 -3.58398 3.58398 -6.65527
c0 -1.53613 -0.511719 -3.58398 -1.53516 -5.12012c-1.02441 -1.53613 -2.56055 -2.04785 -4.09668 -2.04785s-3.58398 0.511719 -6.65625 1.53516c-2.04785 0.512695 -3.58398 1.02441 -5.11914 1.53613c-1.53613 0.512695 -3.58398 0.512695 -5.12012 0.512695
c-2.56055 0 -3.58398 -0.512695 -4.6084 -1.02441c-1.02344 -0.511719 -1.53613 -1.02441 -1.53613 -2.04785c0 -1.53613 0.512695 -2.56055 2.04785 -3.07227c2.04883 -0.511719 4.6084 -1.53613 9.2168 -2.04785c7.67969 -1.02441 12.2881 -2.55957 15.3594 -5.63184z" />
    <glyph glyph-name="linkedin-original" unicode="&#xf1ec;" 
d="M430.489 396.8c16.6914 0 30.3105 -13.209 30.3105 -29.542v-350.516c0 -16.2812 -13.6191 -29.542 -30.3105 -29.542h-349.081c-16.6406 0 -30.208 13.209 -30.208 29.542v350.516c0 16.333 13.5166 29.542 30.208 29.542h349.081zM172.697 47.7695v195.481h-60.8252
v-195.481h60.8252zM142.336 269.978c19.4053 0 35.1748 15.7695 35.2256 35.2256c0 19.4561 -15.7695 35.2256 -35.2256 35.2256c-19.5068 0 -35.2256 -15.7695 -35.2256 -35.2256s15.7188 -35.2256 35.2256 -35.2256zM400.23 47.7695h-0.0507812v107.213
c0 52.6338 -11.3672 93.1328 -72.8584 93.1328c-29.5938 0 -49.4072 -16.2305 -57.4971 -31.5908h-0.819336v26.7266h-58.2148v-195.481h60.6719v96.666c0 25.4971 4.86426 50.2266 36.4551 50.2266c31.1807 0 31.5898 -29.1328 31.5898 -51.8145v-95.0781h60.7236z" />
    <glyph glyph-name="protection" unicode="&#xf233;" 
d="M252.416 424.448c2.04785 0.511719 3.58398 0.511719 5.63184 -0.512695l178.176 -51.1992c4.09668 -1.02441 7.16797 -5.12012 7.16797 -9.72852v-145.408c0 -116.224 -73.2158 -219.647 -181.76 -257.023l-4.60742 -1.53613l-4.6084 1.53613
c-109.568 37.376 -183.296 140.8 -183.296 257.023v145.92c0 4.6084 2.55957 8.7041 7.16797 9.72852zM415.232 217.6v132.097l-159.744 46.0801l-158.721 -46.0801v-132.097c0 -102.911 64 -194.048 159.232 -228.863c95.7441 35.3281 159.232 126.464 159.232 228.863z
M172.544 166.4l29.1836 -29.6963l138.753 138.24c5.63184 5.63184 14.3359 5.63184 19.9678 0c5.63184 -5.63281 5.63184 -14.3359 0 -19.9688l-144.384 -144.384c-4.09668 -3.58398 -8.7041 -5.63184 -13.8242 -5.63184s-10.2402 2.04785 -13.8242 5.63184
l-35.8398 35.8398c-5.63184 5.63281 -5.63184 14.3359 0 19.9688c5.63184 5.63184 14.3359 5.63184 19.9678 0z" />
    <glyph glyph-name="search" unicode="&#xf24f;" 
d="M483.328 18.9443c9.72754 -9.72852 9.72754 -25.6006 0 -35.8408l-19.4561 -19.4551c-9.72852 -9.72852 -26.1123 -9.72852 -35.8398 0l-108.544 108.031c-9.72852 9.72852 -9.72852 26.1123 0 35.8398l0.511719 0.512695l-47.6162 47.1035
c-26.624 -22.0156 -60.9277 -35.3281 -97.792 -35.3281c-84.9922 0 -153.6 68.6084 -153.6 153.601s68.6074 153.6 153.6 153.6s153.601 -69.1201 153.601 -153.6c0 -37.376 -13.8242 -71.6807 -35.8408 -98.3047l47.6162 -47.1035
c9.72852 9.21582 25.0879 9.21582 34.8164 -0.511719zM49.6641 273.408c0 -68.6084 56.3203 -125.44 125.439 -125.44c69.1201 0 125.44 56.3203 125.44 125.44s-56.3203 125.439 -125.44 125.439c-69.1191 0 -125.439 -56.3193 -125.439 -125.439z" />
    <glyph glyph-name="zoom-in" unicode="&#xf2cd;" 
d="M482.816 18.9443c10.2393 -9.72852 10.2393 -25.6006 0 -35.3281l-19.4561 -19.4561c-9.72852 -9.72852 -26.1123 -9.72852 -35.8408 0l-108.544 108.032c-9.72754 9.72754 -9.72754 26.1113 0 35.8398l0.512695 0.511719l-47.1045 46.5918
c-26.624 -22.0156 -60.9277 -35.3281 -97.792 -35.3281c-84.9922 0 -153.6 68.6084 -153.6 153.601s68.6074 153.6 153.6 153.6s153.601 -69.1201 153.601 -153.6c0 -37.376 -13.8242 -71.6807 -35.8408 -98.3047l47.1045 -46.5918
c9.72754 8.7041 25.5996 8.19238 34.8164 -1.02344zM49.6641 273.408c0 -68.6084 56.3203 -125.44 125.439 -125.44c69.1201 0 125.44 56.3203 125.44 125.44s-56.3203 125.439 -125.44 125.439c-69.1191 0 -125.439 -56.3193 -125.439 -125.439zM219.648 292.352
c7.67969 0 14.3359 -6.14355 14.3359 -14.3359c0 -8.19141 -6.65625 -14.3359 -14.3359 -14.3359h-30.7207v-30.7197c0 -8.19238 -6.14355 -14.3359 -14.3359 -14.3359c-8.19141 0 -14.3359 6.65625 -14.3359 14.3359v30.7197h-30.7197
c-8.19238 0 -14.3359 6.14453 -14.3359 14.3359c0 8.19238 6.65625 14.3359 14.3359 14.3359h30.7197v30.7207c0 8.19141 6.14453 14.3359 14.3359 14.3359c8.19238 0 14.3359 -6.65625 14.3359 -14.3359v-30.7207h30.7207z" />
    <glyph glyph-name="harddrive" unicode="&#xf1b7;" 
d="M160.256 69.1201l80.8965 94.208l-36.3525 -118.784c-4.0957 -13.8242 -18.4316 -22.0156 -32.2559 -17.4082c-13.8242 3.58398 -20.9922 18.4326 -17.4082 32.2559c1.53613 4.09668 2.56055 7.16797 5.12012 9.72852zM346.112 36.8643
c0 8.2002 6.64746 14.8477 14.8477 14.8477s14.8477 -6.64746 14.8477 -14.8477s-6.64746 -14.8486 -14.8477 -14.8486s-14.8477 6.64844 -14.8477 14.8486zM239.104 199.168c0 9.89746 8.02344 17.9199 17.9209 17.9199c9.89648 0 17.9199 -8.02246 17.9199 -17.9199
c0 -9.89648 -8.02344 -17.9199 -17.9199 -17.9199c-9.89746 0 -17.9209 8.02344 -17.9209 17.9199zM412.16 418.304c13.3115 0 24.5762 -10.752 24.5762 -24.5762v-404.479c0 -13.8242 -11.2646 -24.5762 -24.5762 -24.5762h-312.32
c-13.8242 0 -24.5762 11.2637 -24.5762 24.5762v404.479c0 13.8242 11.2646 24.5762 24.5762 24.5762h312.32zM408.576 -6.65625v396.8h-304.641v-396.8h304.641zM204.288 142.336l-18.9443 -20.4795c-21.5039 19.9678 -33.792 48.1279 -33.792 77.3115
c0 57.8564 47.1045 105.472 105.473 105.472c57.8555 0 105.472 -47.1035 105.472 -105.472c0 -57.8564 -47.1045 -105.472 -105.472 -105.472c-6.14453 0 -12.2881 0.511719 -18.4326 1.53613l5.12012 27.6475c4.0957 -0.511719 8.7041 -1.02344 13.3125 -1.02344
c42.4951 0 77.3115 34.8154 77.3115 77.3115s-34.8164 77.3125 -77.3115 77.3125c-42.4961 0 -77.3125 -34.8164 -77.3125 -77.3125c0 -21.5039 8.7041 -42.4961 24.5762 -56.832z" />
    <glyph glyph-name="tounge" unicode="&#xf29f;" 
d="M256 441.344c137.728 0 249.856 -111.616 249.856 -249.344s-112.129 -249.856 -249.856 -249.856s-249.344 112.129 -249.344 249.856s111.616 249.344 249.344 249.344zM256 -29.6963c121.856 0 221.696 99.8398 221.696 221.185
c0 122.368 -99.8398 221.695 -221.696 221.695s-221.184 -99.3271 -221.184 -221.184s99.3271 -221.696 221.184 -221.696zM151.04 271.36c0 14.9863 12.1494 27.1357 27.1357 27.1357c14.9873 0 27.1357 -12.1494 27.1357 -27.1357
c0 -14.9873 -12.1484 -27.1367 -27.1357 -27.1367c-14.9863 0 -27.1357 12.1494 -27.1357 27.1367zM306.688 271.36c0 14.9863 12.1484 27.1357 27.1357 27.1357c14.9863 0 27.1357 -12.1494 27.1357 -27.1357c0 -14.9873 -12.1494 -27.1367 -27.1357 -27.1367
c-14.9873 0 -27.1357 12.1494 -27.1357 27.1367zM346.624 137.216c5.63184 5.12012 14.8477 5.12012 20.4795 -0.511719c5.63281 -5.63184 5.12012 -14.8477 -0.511719 -19.9678c-2.04785 -2.04785 -4.0957 -4.09668 -6.14355 -5.63281v-59.9033
c0 -23.5518 -18.9443 -42.4961 -42.4961 -42.4961s-42.4961 19.4561 -42.4961 42.4961v23.04c-6.65625 -0.512695 -12.7998 -1.02441 -19.4561 -1.02441c-41.4717 0 -80.3838 15.3604 -110.08 43.5205c-5.63184 5.63184 -5.63184 14.3359 -0.511719 19.9678
c5.63184 5.63184 14.3359 5.63184 19.9678 0.511719c24.5762 -23.04 56.832 -35.8398 90.624 -35.8398s66.0479 12.7998 90.624 35.8398zM331.776 51.2002h-0.512695v40.4482c-9.21582 -4.6084 -18.4316 -8.7041 -28.1602 -11.7764v-28.6719
c0 -8.19238 6.14453 -14.3359 14.3369 -14.3359c8.19141 0 14.3359 6.65527 14.3359 14.3359z" />
    <glyph glyph-name="text-format-remove" unicode="&#xf295;" 
d="M44.5439 96.2559c-11.2637 0 -18.4316 10.752 -13.8242 21.5039l112.641 262.145c1.53613 6.65527 8.19141 9.21582 14.3359 9.21582h58.3682c6.65527 0 11.7754 -2.56055 14.3359 -9.21582l111.615 -261.632c5.12012 -9.2168 -2.55957 -20.4805 -15.3594 -22.0166
h-48.1279c-6.14453 0 -12.8008 3.07227 -14.3359 9.21582l-15.3604 41.9844h-127.488l-16.8955 -41.9844c-1.53613 -4.60742 -8.19238 -9.21582 -14.3359 -9.21582h-45.5684zM185.344 313.856l-40.4473 -105.473h80.8955zM488.96 120.832
c5.63184 -6.14355 5.63184 -14.8477 0 -20.4805c-6.14355 -5.63184 -14.8477 -5.63184 -20.4795 0l-29.6963 29.6963l-29.6963 -29.6963c-6.14355 -5.63184 -14.8477 -5.63184 -20.4795 0c-5.63281 6.14453 -5.63281 14.8486 0 20.4805l29.6953 29.6963l-29.6953 29.6953
c-5.63281 6.14453 -5.63281 14.8486 0 20.4805c5.63184 5.63184 14.3359 5.63184 20.4795 0l29.6963 -29.6963l29.6963 29.6963c6.14355 5.63184 14.8477 5.63184 20.4795 0s5.63184 -14.3359 0 -20.4805l-29.6963 -29.6953zM381.44 23.04
c7.67969 0 14.3359 -6.14355 14.3359 -14.3359s-6.65625 -14.3359 -14.3359 -14.3359h-348.16c-8.19238 0 -14.3359 6.14355 -14.3359 14.3359s6.65527 14.3359 14.3359 14.3359h348.16z" />
    <glyph glyph-name="ruler-alt" unicode="&#xf245;" 
d="M500.224 308.736c4.09668 -4.09668 6.65625 -9.72852 6.14453 -15.3604c0 -5.63184 -2.56055 -11.2637 -6.65625 -15.3604l-329.728 -329.728c-4.09668 -4.0957 -9.72852 -6.65625 -15.3604 -6.65625s-11.2637 2.56055 -15.3604 6.65625l-127.487 127.488
c-4.6084 4.0957 -6.65625 9.72754 -6.65625 15.3594s2.55957 11.2646 6.65625 15.3604l296.447 295.936v0v0l33.792 33.792c8.19238 8.19238 22.5283 8.19238 30.7207 0zM154.624 -27.6484l321.536 321.024l-118.784 118.784l-19.4561 -19.4561l54.7842 -54.7842
c5.63184 -5.63184 5.63184 -14.3359 0 -19.9678c-3.07227 -2.56055 -6.65625 -4.0957 -10.2402 -4.0957s-7.16797 1.53516 -9.72754 4.0957l-55.2959 54.7842l-33.2803 -33.2803l33.792 -33.792c5.63184 -5.63184 5.63184 -14.3359 0 -19.9678
c-2.56055 -2.56055 -6.14453 -4.09668 -9.72852 -4.09668s-7.16797 1.53613 -9.72754 4.09668l-33.792 33.792l-33.792 -33.792l54.7842 -54.7842c5.63184 -5.63184 5.63184 -14.3359 0 -19.9678c-2.56055 -2.56055 -6.14453 -4.09668 -9.72852 -4.09668
s-7.16797 1.53613 -9.72754 4.09668l-55.2959 54.7832l-32.7686 -32.7676l33.792 -33.2803c5.63184 -5.63184 5.63184 -14.3359 0 -19.9678c-2.55957 -2.55957 -6.14355 -4.0957 -9.72754 -4.0957s-7.16797 1.53613 -9.72852 4.0957l-33.792 33.792l-33.792 -33.792
l54.2725 -54.7842c5.63184 -5.63184 5.63184 -14.3359 0 -19.9678c-2.56055 -2.55957 -6.14453 -4.0957 -9.72852 -4.0957s-7.16797 1.53613 -9.72754 4.0957l-54.7842 54.7842l-33.2803 -33.2803l32.7686 -33.2803c5.63184 -5.63184 5.63184 -14.3359 0 -19.9678
c-2.56055 -2.55957 -6.14453 -4.0957 -9.72852 -4.0957s-7.16797 1.53613 -9.72754 4.0957l-33.2803 33.2803l-15.3604 -15.3604z" />
    <glyph glyph-name="shovel" unicode="&#xf25e;" 
d="M484.864 327.168c5.63184 -5.63184 5.63184 -14.3359 -0.512695 -19.4561c-2.55957 -2.55957 -6.14355 -4.0957 -9.72754 -4.0957s-7.16797 1.53613 -9.72754 4.0957l-16.8965 16.8965v0c-2.55957 -3.07227 -6.65625 -5.12012 -10.752 -5.12012
c-3.58398 0 -7.16797 1.53613 -9.72852 4.0957l-10.2393 10.2402l-168.448 -168.448l46.5918 -47.6162c4.0957 -4.0957 4.0957 -10.2402 0 -14.3359l-118.271 -118.271c-16.8965 -17.4082 -39.9365 -26.624 -64 -26.624c-24.0645 0 -47.1045 9.72754 -64 26.624
c-35.3281 35.3281 -35.3281 93.1836 0 128.512l118.783 118.271c4.09668 4.09668 10.2402 4.09668 14.3369 0l47.1035 -46.5918l167.936 166.912l-10.2393 10.2402c-6.14453 6.14355 -5.63184 15.3604 1.02344 20.9922v0l-16.8955 16.8955
c-5.63184 6.14453 -5.63184 15.3604 1.02344 20.9922c5.63281 5.12012 14.3359 4.0957 19.4561 -1.02441zM263.68 111.104l-35.3281 33.793l-12.7998 -12.8008c-2.55957 -2.55957 -6.14355 -4.0957 -9.72754 -4.0957s-7.16797 1.53613 -9.72852 4.0957
c-5.63184 5.63184 -5.63184 14.3359 0 19.9688l12.8008 12.7998l-34.3047 34.3037l-105.472 -105.472c-24.5762 -24.5762 -24.5762 -64 0 -88.5762s64 -24.5762 88.5762 0z" />
    </font>
</defs>
</svg>
